<svg version="1.2" xmlns="http://www.w3.org/2000/svg" viewBox="0 0 1024 1024" width="1024" height="1024">
	<title>Bull Finance Line Art Illustration</title>
	<defs>
		<linearGradient id="g1" x2="1" gradientUnits="userSpaceOnUse" gradientTransform="matrix(4.798,-0.492,3.401,33.142,361.42,419.725)">
			<stop offset="0" stop-color="#110403"/>
			<stop offset="1" stop-color="#340e08"/>
		</linearGradient>
		<linearGradient id="g2" x2="1" gradientUnits="userSpaceOnUse" gradientTransform="matrix(4.408,.079,-0.795,44.42,379.345,432.475)">
			<stop offset="0" stop-color="#150301"/>
			<stop offset="1" stop-color="#31110c"/>
		</linearGradient>
		<linearGradient id="g3" x2="1" gradientUnits="userSpaceOnUse" gradientTransform="matrix(-4.737,-0.687,2.199,-15.165,582.262,480.939)">
			<stop offset="0" stop-color="#1a0603"/>
			<stop offset="1" stop-color="#2e0904"/>
		</linearGradient>
		<linearGradient id="g4" x2="1" gradientUnits="userSpaceOnUse" gradientTransform="matrix(30.616,22.465,-23.21,31.632,547.303,468.517)">
			<stop offset="0" stop-color="#260102"/>
			<stop offset="1" stop-color="#2e1a0f"/>
		</linearGradient>
	</defs>
	<style>
		.s0 { opacity: .4;fill: #ffffff } 
		.s1 { fill: #200e0c } 
		.s2 { fill: #281a17 } 
		.s3 { fill: #341a11 } 
		.s4 { fill: #0e0907 } 
		.s5 { fill: url(#g1) } 
		.s6 { fill: url(#g2) } 
		.s7 { fill: #352724 } 
		.s8 { fill: url(#g3) } 
		.s9 { fill: url(#g4) } 
	</style>
	<g id="Folder 2" style="opacity: .7">
		<path id="out" class="s0" d="m81.9 587c0.3-1.5 0.3-2.2 1.2-3.5 0.5 1.3 0.2 1.7 0 3.4-0.2 6.3-0.6 14.3 0.7 20.5 1.3 6 3.7 12 4.6 18.2 3.8 27 9.6 61.7 8.1 88.8-0.4 6.9-1.4 13.7-3 20.4-1.9 7.6-10.9 27.6-9.2 32.2 3.8 3.8 10.4-3.1 5.9 14.6l2 5.3c-2.9-0.4-11.3-0.1-14.7 0.1l-4.1 0.9c6.4 0.3 13 0.1 19.4 0.1 0.9 0.9 1.8 1.8 2.7 2.9-2.3 0-4.8-0.2-6.8 0.7l0.5-0.2 0.6 0.5c2.3 0.1 3.3 0.1 5.6-0.2 2.4 1 3.1 2.4 4.9 4.7-3.9-0.3-22.2-1.1-25.2-0.5 3.3 1.5 20.8 1.4 25.6 1.6 1.7 1.6 3.8 3.4 4.8 5.5-7.8 0.7-19.8 0.8-26.8 2.3 7.2 0.4 17.4 2.4 23.1 2.3 8.5 0.9 76.9 2.7 79.1-0.2-1.2-1-15.2-0.1-18.8-1.1l-0.2-0.8 1-0.5 0.4-0.7c-1.3-2.2-2.4-4.6-3.6-6.9 3.6 0 7-0.1 10.6-0.3-3.2-0.4-7.7 0.2-10.2-0.8-1.1-0.7-1.3-1.3-2.2-2.4-2.4-9.6-11.9-20.4-16.4-28.7-8.5-15.7-13.5-38.9-12.7-56.6 0.8-19.2 1-40.3 8.8-58.1 5.3-10.8 13-18.4 18.5-29.3 4.3-8.6 13.9-49.5 21-51.7 1.7 2.4 3.5 10.9 4.6 14.1 3.6 11.1 7.1 22.8 5 34.6-1.5 8.3-5.7 14.6-2 23.1 3.8 8.7 9.9 16.3 14.2 24.5 9.2 17.9 19.9 39.9 24.6 59.5 1.2 4.9 1.9 9.9 2 15 0.2 12.8-6.1 27 11.2 29.8-2.2 8-4 15.7 4.3 20.6 2.8 0.1 6.4-0.1 8.3 1.8v1c1.3 1.4 1 0.6 1.2 2.3-2.1 2.3-21 0.6-25.5 0.6-13.9 0.5-36.8-0.8-49.7 0.7 7.7 0.7 16.2 0.4 23.9 0.4 16.5 0 33 0.1 49.5 1.3 4.9 0.3 9.5 1.3 14.4 1.6 6.3 0.3 19.7-0.3 25 1 2.7-0.9 2.1-1.1 4.5-0.5 1.7 0 4.6-0.1 5.9 0.7l0.5-0.1c3-1.2 7.5 0 10.3-1.6l0.4-1.8-0.1-1.3c-0.2-1.2-0.7-1.7-0.9-3.2-3.6-10.2-7.8-13.5-12.7-21.9-7.5-12.8-18.6-19.1-26.9-30.2-19.3-25.9-29.1-60.3-31.2-92.3-0.7-12.1 5-25.3 9.1-36.4q5-13.2 8.5-26.8 4.6-18.8 7.6-37.9c0.9-5.4 1.8-14.5 3-19.5 8.2 5.5 17.8 13 24.2 20.1 17.8 20 27.4 40 58 33.5 30.9-6.7 56.5-23.7 89.3-20.6 17.6 1.6 34.1 4.4 51.4 8.2 0.8 0.2 1.9-1.4 2.3-2 5 14.5 8.6 30.1 13.5 44.9 2.9 8.6 7.7 20.6 9.4 28.9 1.1 5.9 2.2 16.4 2.5 22.4 0.4 7.4-1.3 16.7 0.3 24.2 3 13.3 10.5 20.8 9.3 35.4-1 13.6-1.9 25.5-5.9 38.7-2.9 9.8-8.2 18.4-9.7 28.1-0.3 1.5-0.2 4.3 1.1 5.3 2.6-1.6 5.9-7.9 8.7-11.1 0.4 3.8 0.4 12.5-0.2 16.5-0.6 4.7-4.4 11.6-3.5 16.8l0.5 1c2.3 3.3 1.6 3.1 5.2 5.1l0.5 1.4c1.7-0.3 2.1-0.7 3.4-1.7l1-0.1c1.3 1.5 1.8 3.9 1.7 5.8l-0.6 0.5-0.5 1c3.2 0.7 3.9 1.2 5.7 3.9l-0.2 1.2c10.3 1.5 21 7.3 32 6.7 4.5-0.2 8.5-2.6 13.1-2.7l0.8-0.7c3.5-2.4 4.1-2.9 5.1-6.9v-0.3c-0.6-1.3-0.9-4.5-1.2-6-0.7-1.7-0.8-1.9-1.1-3.6l-0.2-0.9c-0.5-0.4-7-11.9-8.3-13.8 1.1-8.9-5.3-13.8-9.6-20.7-2.1-3.4-4.8-8.7-6.1-12.6-6.3-17.8-1.1-50.4 6-67.7 2.5-6.1 9.4-9.7 11.9-22.1 2.2-10.6 1.3-17 2-26 0.7-8.2 8.7-34.2 12.1-41.4 2 0.1 4 0.6 6 1 0.1 19.3-3.7 34.7-4.8 53.5-0.5 9.3 8.6 21.3 10.8 29.8 5.1 19.1 3 43 1.7 62.6-0.5 6.4-8.6 25.3-5.4 30.7 2.5-0.7 3.8-5.8 7.8-6.1 5.4 3.1 3.4 16.2 4.4 22 0.7 4.2 0.9 5.1 2.3 9.3-2.9 0.2-4.5 0.3-7.5 0.2l-1.6 2.1c3.6-0.1 9-0.9 11.9 0.8l0.3 0.8c-2.9 1.6-26.3-0.4-32.3 1.6 2.1 1.7 31.2 0.6 36.8 1.4 7.3 1 18.7 3.4 25.6 3 22.1-1.1 44.1-2.1 66.3-2.1 5.9 0 17.9 0.8 22.9-1-1.7-1.3-30.5-1-35.1-1.3-4.3-0.3-12.5 1.2-17.4 0.9-0.9-1.2-1-2.3-0.9-3.8 0.1-3.2-3.5-7.4-5.5-10.6-4.2-6.7-7.2-14.9-12.6-20.7-11.5-12.4-20.9-17.7-24.7-35.6-3.2-15.1-8.5-39.2-2.5-54.1 1.8-4.7 10.5-10.8 10.7-17.9 2.3-9.5 0.8-19.8 1.7-26.8 1.2-11 14.8-39.3 20.2-48.9 10.8-5.2 23.7-6.4 34.6-14 15.7-10.9 22.7-30.8 27.6-48.6 3.9-14.5 6.6-23.7 16.3-35.6 3.8-4.9 7.3-11.3 11.5-16.7 11.3-14.5 28.3-22.8 45.5-27.9 12.4-3.3 24.5-4 37.4-9 12.3-4.7 24.5-13.9 37.3-15.3 10.7-1.2 21.3 5.7 33.4 3.8 13.9-2.2 18.3-7.6 26.3-17.7 4.3-0.8 8-0.7 12.1-2.4 2.8-1.3 6.8-4.8 7.3-8 1.7-10 4.6-22.3 2.5-32.2-1.6-6.8-8-10.5-12-15.6-9.6-12.4-16.4-26.6-22.5-40.9-3.2-7.3-1.1-14.2-1.7-21.9-0.9-12-4.7-22.8-9.8-33.6 6.1-2.6 10.7-4.9 16.1-8.7 16.3-11.1 27.2-28.3 30.4-47.7 1.3-7.3 2.7-26.1-0.7-33.5-0.9-1.9-5.1-2.3-6.2 0.7-1 3-1.6 6.3-2 9.4-1.3 10-5.1 19.3-12.1 26.6-12.8 13.6-29.9 14.7-47.5 15.4-2.7-6-6.7-11.2-11.5-15.5-8.8-7.6-14.6-9.4-25.9-8.6 0-3.2 0.4-5.2-1.2-8-4.6-3.2-11 8.6-14.7 12-18.7-4.4-30.2 0.5-43.2 14.3q-0.1 0-0.2 0c-20.7 2-39.6-5.7-58.8-12.1-9.9-3.3-19.6-5.9-29.2-9.4-24.6-8.8-49.7-20.1-75.9-23.7-16.8-2.3-37 1-53.3 4.9-12.3 2.9-26 5.6-37.8 10.1-23.2 8.8-45.2 20.8-68.3 30-33.1 12.9-69.7 23.5-104.6 29.9-35.7 6.6-74.4 7.6-110.7 5.9-10-0.4-20.2-0.7-30.1-2.2-8.5-1.3-17.3-3.5-25.6-5.5-3.6-0.9-15.7-4.5-18.5-4.6-3.7 0-15.7 4.3-19.9 5.5-21.7 6.3-41.1 10.4-57.8 27.2-14 14.1-21.2 29.7-24.7 49.3-2.6 12.8-2.2 25.4-2.6 38.3-0.5 18.5-0.2 36.5 1.2 55 0.4 6.1 1.4 13.4 1.5 19.3 0.2 17-0.5 34.1-0.8 51-0.8 17.3-3.5 36-9.1 52.4-4.4 12.9-11.1 25.2-13.1 38.8-3.2 21.7 1.3 44.6 2.6 66.2 0.8 12.2 0.4 24.6 0.3 36.7 6.9-6.7 9.4-20.4 12.4-29.5 5.6-17.6 6.6-37 7.3-55.4 0.3-6.6 1.3-13.5 1.2-20zm496.5-388.8c1.2-1.7 2.3-2.9 4.7-2.6 0.1 1.4-7.8 15.7-9.1 18.4-12.2 25.4-22.5 53.4-20.4 82.1 0.1 1-0.2 2.3-0.9 3.2-1.6-1.9-2-18.9-2.8-23.7-1.9 34.2 0.9 70.1 16.6 101 1 1.9 3 5.5 3.6 7.5l2.2-2.7c-4.1-13.3-7.7-28.9-11.5-42.6l-1.1-4.3c-0.6-1.5-1.4-3.9-1.2-5.5 1.3 1.8 1.5 3.3 2.1 5.3l1.1 4.3c6.3 19.2 14.1 37.9 23.2 56-0.2-9.9-5.9-20.8-8.9-30.4-1.1-3.8-2.3-7.4-3.3-11.3-7.4-28.3-17.7-60.1-12.2-89.5 2-10.7 7.7-25.2 11.6-35.4 4.1-10.4 10.8-20.9 14.6-31.5l0.3-0.7c1.4-1.2 3.4-1.3 5.3-1.7-4.7 8.8-9.5 16-13.8 25.4-4.8 10.4-7.9 19.4-11.8 30.2 5.2-6.1 25-48.3 28.9-56.6l7.1-0.3c-2.6 6.3-3.5 9-4.7 15.8 1.9-2.9 8.1-15.7 11-16-0.5 4.8-8.9 18.8-11.4 24.8-6.4 15.4-14.5 32.1-17.9 48.6 4.2-6.8 6.4-15 9.5-21.4 6.2-12.4 18.8-42.2 26.9-52.4 2.5 0.2 5.3 0.8 7.8 1.2-4.9 10.9-10.6 21.5-15.5 32.8-5.8 13.2-10.2 27.1-13 41.2q0.1-0.2 0.2-0.4c4.1-6.4 6.6-16.1 9.4-23.4 3.1-8 19.1-46.3 24.4-49.6 4.9-3.1 23.2 2.1 29.1 3.8-10.7 15.9-18.6 28.5-27.3 45.6-3.9 7.6-8.2 17.6-12 24.6l-0.2 0.5c3.7-15.1 8.7-29.8 14.7-44 3.4-7.9 8.7-16.7 10.5-24.8-12.4 18.2-24.1 48.4-29.4 69.9-3 12.1-5 24.9-8.4 36.7 0.1-6.1 0.9-13.7 1.2-19.9-0.3-2.8 0.4-3.2-0.5-7-4 22.8-5.5 46-4.6 69.1 0.5 9 1.9 18.5 2.2 27.3-1.7-5.3-2.2-10.2-3.3-15.5-4.3-20-4.4-34-2.7-54.2l-1.1 0.7c-2.4 8.7-3.1 16.7-3.1 25.8 0 3-0.1 5.5-0.3 8.5-0.3-2-0.9-5.8-1-7.6-2.2-12.5-4.9-24.3-3.1-37.1 0.4-2.2 1.2-8.3-0.1-9.7-3.6 6.4-5.4 33-4.9 40.6 0.4 6.6 1.5 13.1 3.2 19.5 2.5 9.1 6.1 17.6 9.9 26.1 1.4 3.1 5.9 11.2 6.5 13.7 2 9.7 4.2 21.6 5.8 31.2 0.5 2.1 1 3.5 0.8 5.7-0.9-1.5-0.9-1.7-1.3-3.3-2.8-13.5-10.7-26.2-16-39.1-3.7-9.2-4.4-15.9-6.8-24.9-6.7-24.9-11.1-47-7.9-73.1 0.2-2 0.6-4.8-0.5-6.5l-0.7 0.4c-1.3 3.4-3.1 31.9-3.4 37.1-3-11.8-2.3-23-5.2-33-2.8 21.5 1.6 53.8 9.3 73.6 8.2 21 16.8 43.8 25.6 64.7 2.2 5.1 4.1 8.3 5.2 13.9-4.3-7.7-8.4-19.5-14.6-25.4 2.4 8.2 11.3 27.4 14.9 35.4 8.9 18.3 13.1 35.4 15.2 55.5 1.5 14.6 1 23.1-0.6 37.6-0.7-3.9-0.7-12.4-0.9-16.9-0.7-16.1-0.4-29.7-5-45.3-8.2-27.9-22.7-48.7-39.3-72-2.2-3.1-10-14-11.3-16.8-6.4-13.7-10.9-27.9-14.8-42.4-1.8-6.7-2.8-15-5-21.4q-0.4 0.6-0.7 1.1l-0.9 0.3h0.3l-0.8 0.3 0.4-1.6c-1.4-0.4-0.7-0.4-2.1 0 3.3 27.7 12.1 53.4 23.5 78.7 1.8 4.2 3.1 8.6 5 12.8 7.9 17.5 15.5 35.3 19.8 54 0.6 2.5 0.9 6.1 1 8.6 0.5 8.1 1 16.3 0.9 24.4-0.1 6.2-1 12.5-1.3 18.7q0.3 0.4 0.7 0.8c2.8-0.6 4.2-13.1 4.7-16 0.7 15.2 2.7 27.4 4.3 42.2 0.7 6-0.8 26.9-1.6 32.8-0.3 0.2-0.6 0.5-1 0.6-0.4 1.9-0.1 1.9-1.2 2.8-0.7-0.2-1.2-0.4-1.9-0.7 0.1 1.8 0.2 2.1-0.3 3.9-0.7 3.4-1.1 6.3-2.7 9.3 0.5-3.1 1-6.4 1.5-9.5 0.5-7.6-0.1-14.3-1-21.7-2-6.6-3.2-14-6.1-20.1-2-4-4-7.5-5.6-11.7-1.7-1-3-2-4.9-1.9-2.2 2.1 3.3 17.7 4.6 21.2 11.3 33.1-1 67.4-12.1 98.7-1.3 3.7-1.3 4.7-3.8 7.9q-2.1 0.9-4.2 1.7c1.4 2.2 5.4 0 7-0.9 1 8.1-0.6 27.2-6.2 34-4 4.9-9.7 2.9-12.1 5 0.6 1.5 3 1.9 4.5 2.3-1.2 1.3-2.9 2.8-3.2 4.5 2.9 5 2 4.7 0.6 10.1-5.3 21-8.5 45.1-1 66 2.5 7.1 6.7 12.4 10.7 18.5-4.8 5.5-13.7 5.2-20.3 5 2.4-3.1 4.2-4.8 5.1-8.7l-0.3-0.9c-2.7 0.8-4.9 7-5.3 9.6-2.2-0.7-3.7-1.6-5.8-2.7 2-4.2 5.7-4.1 4.2-7.5-0.5-2.4-0.8-2-2.8-2.8 0.3-1.1 0.4-1.3 0.8-2.3-1.6-2.4-2-2.9-3-5.7l-0.5-2.3-1.1-0.4h-0.6c0.4-2.7 0-2.6-1.6-4.3l-2-0.9c-0.7 1.6-1.4 2.7-3 3.3l-0.6-1c0-3 0.6-5.3 3.9-5.6 0.3-0.2 1.4-0.6 1.9-0.8l-0.6-0.5c-0.2-0.2-0.9-1.2-1-1.4-0.6-1.9 4.7-10.7 5.8-12.5-2-0.2-2.5-0.7-4.2-1.7l0.8 1.7-0.6 1.1c-1.4 0.6-1.4 0.5-3 0.2-0.3-3.5 0.7-10.7 1-14.6q0.8 4.6 1.3 9.1l3.1 0.4c-0.5-2-1.2-3.7-0.1-5.5 3.1 0.2 3.2 3 2.9 5.3 2.2-4.4 2.1-6 2.2-10.8-4.3-6.1 2.9-2.5 0.6-8.9-0.9-2.5-4.1-6.1-5.9-8.4-0.3-1.6-0.1-2.5 1.4-3.2 2.4 1.9 0.6 7.3 5.7 6.9-0.4-0.6-0.8-1.2-1.3-1.8l0.5-0.4c1.1 0.7 1 0.8 2.2 1.1l-1.5-3.1c-1.9-1.8-0.3-1.7-3.7-3.3 0.2-2.1 0.5-0.9-0.3-3.2l1 0.7 0.8-0.2c0.8 0.3 1.4 0.5 2.3 0.7 0.7-0.9 0.4-0.7 1.3-1.4l1.4 0.4 1.4-0.2 0.4-0.9-0.8-1.4c-1.2 0.1-0.8 0.1-2-0.5-0.7-2 0.2-4.7 0.5-7.1 1.1 0.8 1.9 1.2 2.5 2.4 0.7-1 0.7-1.1 1.1-2.3-1-1.5-1.5-1.3-3.7-2.2l0.2-0.6c1.3-0.9 2.5-0.5 4.6-0.6 0-1.5-2.1-0.4-3-2.4 1.2-2.3 3.9-1.4 4.4-4.5-1.2-1-0.9-0.5-1.5-1.8 1-2.1 2.6-3.1 4.4-4.6-2.4-0.7-5.2-1.2-7.7-1.7l-1.5 0.5c-4.4 3.1-10.4 2.4-14.9 3 0.5 1.2 0.4 0.9 1.1 2l-0.3 0.4c-1.3-0.5-2.2-2.9-2.9-4.4 4 0.2 11.5 0.2 15.4-0.9 2.3-1.8 4.9-2.1 6.3-3.5-5.2-1.1-10-3-15.1-3.8-1.2-0.2-0.6-0.1-1.7-1.2 2.8-2.8 7.3 3 15.8-3.3-3.1 0.5-8.6 1.4-11.7 1.2l-5-0.2c-3.3-0.9-4.6 0.4-6-3.1l0.3-1.7c0.2-1.4 0.2-1.6 0-3l0.5-0.5 0.4-2c-0.7-1.4-0.6-1.7-0.6-3.2l0.6-0.6c2.7 0.3 6.9 1.9 9.6 2.9l-0.8 0.4-1.8 1.5c2.2 0.3 2.2-0.1 3.5 1.2l0.1 1.2 0.2 0.3q0.7-1.2 1.5-2.4c1.8-0.8 4.4 0 6.5 0.3 3.5-0.2 8.5-0.6 11.8-1.7 0 0-17.1-3.7-19.5-4.4-1.9-0.4-3.9-0.7-5.5-1.7 1.5-0.5 3.2 0 5.1 0.1 5.1 0.1 14.9-0.3 19.3-3l-0.1-0.6c-1.9-0.9-3.2-0.4-5.4-0.2-1.9 0.4-5.4 0.9-7.1 0.6l-0.4-0.9c0.2-1.7 0-2.7 1.7-3.2l1.9 1.1 0.5-1c2.1-0.1 2.6-0.2 4.7-0.7 0.7-1 11.2-3.4 14.4-4.8-5-0.4-24 0.5-26.4-1l-0.3-1c2.5-3 11.9-2.1 16.1-3.2 3.5-0.8 5.1-1.3 8.4-2.8l0.4-0.2c-1.2-0.7-0.5-0.5-2-0.4-4.8 0.9-10.3 2.1-15.2 1.4-2.6-0.2-6.1 0.6-8.8 1.1 4-2.5 9.7-6.3 13.7-8.3 5.1-2.5 11.1-3.5 16.1-7.2l-0.5-0.4c-4.8 0.6-7.6 1.6-12 2.5-10.1 2-13.9 1-22.3 7.5-0.4 1.1-0.6 1.7-0.7 2.9-1.2 1.4-0.9 1.6-2.4 2-1-1.4-1-1-0.7-2.9 1.5-2.8 6.9-6.9 9.7-9.7l-1.5-2.4c-2.9 1.8-14.2 10.3-16.2 10.2-0.3-1.4 0.2-2.1 1.2-3.1 4-1.6 8-7.2 14.8-9.8 8.7-3.2 19.1-8.6 27.3-13.1-10.4 3.1-24.5 7.3-34.9 9.8 1-2.7 1.7-5.2 2.6-8 2.2-2.6 4.9-8.3 6.2-11.5-3.5 2.2-7.4 5.5-10.6 8.2-4.2 2.7-6.9 8.2-6.7 13.2 1.6-2.5 7.7-11.4 10.6-11.7l-0.1 0.9c-3.3 4.8-9.8 14.3-11.1 19.7q-1.3-3.9-2.6-7.8c-7.1-13.8-12.9-38.9-17.3-53.9-3.5-11.8-7.9-25.7-10.5-37.6-2.3-10.7-2.5-20.6-5.7-31.9-5.2-18.4-14.4-34.7-17.9-53.8-2.3-12.5-4.2-24.7-5.1-37.4-0.3-4.1-0.3-10.3-2-14l-0.7-0.1c-2.7 4.1-0.4 33.6 0.2 39.4 0.7 5 1.4 10 2.3 14.9 4.3 12.2-0.9 15.5 2 27.8 0.4 1.9 0.9 4.6 1.6 6.3 0.5 1.7 0.5 1.8 0.7 3.7-1.2-1.3-1.5-2.8-2-4.5l-1.2-3.6c-2.1-5.2-5.8-14.2-7-19.4-3.2-12.7-6.2-31.1-6.9-44-0.3-5.4-0.3-10.6-0.3-16-0.6-3-1.8-9.2-3-11.7l-0.8-0.1c-2.8 3.1 1.2 17.6 1.1 21.9-0.6 23.3 4.2 46.6 11.6 68.7 2.9 8.7 8.3 16.1 11.7 24.1 0.5 1.7 0.9 3.4 1.6 5 1.1 2.2 3.7 8 4.1 10.2-1.4-0.4-4.3-8.2-5-10l-1.5-3.2q-6.1-10.3-11.5-20.9c-19.1-37.2-23-72.1-18.5-113.5 1.9-17.3 4.2-29.6 9.7-46.4 3.5-10.8 8-21.3 13.4-31.4 5.8-10.6 13.5-21.2 20.4-31.4 9.6-14.3 19.2-29.2 31.7-41.3 3.4-3.3 8.1-5.5 12.3-7.6-6.6 11.7-13 24.2-19.6 35.7-9.4 16.2-16.9 25.5-23.4 43.3 6.6-5.9 25-33 29.5-41.6 8.5-16.2 12.8-26.9 23.9-42.1-9.2 23.3-27.5 47.2-35.6 71.9 2.6-4.4 4.4-7.9 7.2-12.2-2.5 8-7.3 22.2-8.9 30.1 6.2-9.7 9.6-22.1 15.7-31.9 11.8-19.2 18.2-42.2 30.8-60.7-0.9 3-2.1 5.9-3.2 8.8-8.2 21.9-15 44.3-22.7 66.4-1.3 3.8-2.7 7.4-3.5 11.3 4.8-6.5 7.7-14.8 10.6-22.4q6.3-16.2 12.3-32.7c2.6-7.5 9.6-30.4 16.1-33.8l0.5 0.4c-0.3 3.1-6.3 18-7.6 22.3-4.4 14-7.8 28-11.4 42.2-1.4 5.9-3.6 11.8-4.5 17.8 4.9-9.4 7.9-19.4 11.1-29.4l10.2-31.7c2.3-7 4.5-14.3 7.4-21.1 1.2-2.9 1.1-2.2 4.6-3.5-2.7 6.5-4.2 9.4-5.2 16.4 2.3-4.9 7-12.3 6.8-17.3 4-0.5 7.4-2.9 11.9-0.9zm117.6 12.5l0.7 0.3c2.9 0.8 5.1 1.5 7.9 2.5-3 8.4-6.7 16.6-9.8 25.1q-7.6 20.8-13.8 42c-4.2 14-8.5 28-9.2 42.7-0.4 7.6-0.5 15.3-0.5 22.9 0.1 8.1 2.5 16.4 3 24.5-6.6-18.9-4.4-41.7-6.7-61.4-2.2 17.5-3 41.3 1.6 58.2 4.7 17.5 11.7 34.9 20.3 50.6 0.8 1.5 1.1 3.7 0.4 5.3-1.2 0.9-0.7 0.6-2.2 0.9-0.4 1.3-0.4 0.8-0.1 2 4.5 8.3 5.3 12.1 3.4 21.3-1.4-3.8-2.7-7.5-3.9-11.4-0.9-3.3-1.1-6-2.4-9.2-2.3-4.6-5.7-15.1-8.4-21.2 3.3 4.7 6.8 9.2 9 14.5-0.3-11-5-14.2-9-23.8-4.8-11.5-8.9-23.6-10.8-36-0.7-4.5-2.5-9.1-3-13.7-0.4-4.6-0.4-9.2-0.9-13.8-6.1 27.4 1.7 48.2 7.9 74.5-4.4-9-7.2-18.5-10.1-27.7-13.4-43.2 1.7-83.3 15.2-124.1 1.1-3.1 3.4-7.6 2.9-10.9l-0.6 0.1c-3.4 4.4-12.9 34-14.8 39.9-11.7 34.6-17.2 70.7-7.9 106.6 3.7 14.1 12.7 24.3 12.3 39.2-0.1 3.4 3.9 7.8 3.7 9.6-2.9-2.4-12.5-23.4-14.6-28.2-13.8-32.1-20.3-70.6-13.1-105.1 3-14.9 6.5-30.4 10.9-44.9q3.1-10.2 7.1-20c2.6-6.3 6.3-14.2 7.7-20.7l0.2-0.8c-2.4 3.4-5 9.4-7 13.3-10.9 21.1-15.9 41.1-20.6 64.2-0.6 4.4-0.9 8.8-1.2 13.2-1.2-2.7-0.3-12 0.1-15.1 0.3-3.5 0.6-6.9 0.5-10.4-4.8 12.8-7.4 32.2-7.9 45.9 0.1 5.7 0 11.4 0.2 17.1 0.1 2.9 1.6 11.5 1.3 13.4-1.4-2.7-2.8-14.6-2.8-18l-0.9-0.2c-2.6 4.7 0.1 27.9 1.2 34.2 1.1 5.8 3.6 15.3 5.3 21.1q1.8 6.3 3.8 12.4c-9.3-14-14.4-51.4-14.5-69.1 0-10.3 2.4-31.2 4.5-41.5q1.6-7.3 3.6-14.4c-9.9 14.7-10.5 37.7-11.7 54.9-0.6 7-1.2 15-1 22 0.4 10.1 2.4 20.7 4.2 30.7 1.8 9.6 5.5 18.9 8.1 28.3 3 13.3 1.7 18.9 7.6 32.4 0.3 1.4 0.9 2.5 0.5 3.7-0.8-1.2-0.9-1.3-1.5-2.7-3.4-6.2-6-13.9-8.4-20.6q-4.7-12.6-9.4-25.1c2.2 3.7 3.3 5.4 6.7 8.1-9-22.5-14.9-46.1-17.7-70.2-1-8.8-2.5-28.6-0.8-36.8 7.7-37.3 29.4-83.6 52.4-112.8q4.1 1.4 8.1 2.9c-4 7.1-9.5 14.7-13.7 21.9-9.8 16.9-20.4 38.7-24 57.9 3.4-5.8 9.1-20.9 12.4-27.9 9-19.2 17.4-33.5 28.9-51.2 4.6 1.4 17.8 5.9 21.3 8.6zm135.4 29.1c5.7-5.4 9.7-9.6 14.6-15.8-1.9 4.5-7.5 16.3-12 18.7l-1 1.1c-3 5.3-21.4 15.4-25.4 21l0.9 0.8c3.1-1.5 7.5-5.2 10.3-7.4 1.2-1.1 2.9-3.1 4.3-3.4-0.8 2.1-2.9 3.7-4.7 5.1-6.6 5.3-12.2 9.8-18.5 15.5 2.3-3.1 3.9-5.3 6.4-8.2l-1-0.4c-2.1 1.7-6.3 5.8-8.8 5.8-0.2 3.1-1.4 2.7-4.3 3.6l-0.8 0.2-0.5 0.2c0.8-1.1 3.6-3.2 5-4.6-2.1-0.1-3.5 0.8-5.1 2.1-8.2 5.4-9.4 2.5-18.2 4.2l-4.5 0.8c-7.5-5.7-8.8-8.3-12-16.9 3.4-0.4 6.8-1.2 10.2-1.7 24-3.1 43.6-6.1 64.1-19.9zm-22-9.6c0.5 1.4 1.1 3.5 1.8 4.8l-2.5 0.5c-0.6-1.8-0.5-1.7-2-2.8zm-17 20.4c3-5 8.3-12.4 12.2-16.6 0.4 1.6 0.4 2.1 1.4 3.5 2.9 2.2 3.9 0.5 6.6 2.1l-0.2 0.4c-4.2 0.3-13.3 0.4-13.7 6.2 2.8-1.5 6.4-3.5 9.5-3.8-1.5 2.3-6.9 3.9-9.6 4.9-1.8 1.3-4.1 2.3-6.2 3.3zm25.2-13.4c2.2-0.1 3.3-0.9 5.3-2l0.6 0.1c-1.2 1.4-3.6 2.9-5.4 3.3l-1.2 0.7c-2.1 0.1-1.5 0.4-2.8-0.5 1-1.2 1.5-1 3.5-1.6zm-3-3.1c-0.6-1.8 0.4-1-0.5-3l-0.1 0.4-0.5 0.2c-1.3-0.6-1.4-1.4-2.3-3l0.7-0.9c2.2 0.8 3.5 2.2 4.7 4.1-0.2 1.5-0.4 1.7-2 2.2zm70.6 9.8c-0.7-2.9-2.6-9.4-5.2-11-0.3 2.8 0.8 4.6 1.2 7.2 0.8 4.9-2.6 12.3-4.9 16.4 0.6-3.2 1.4-6.2 2-9.3-1.1-2.8-2.3-6-3.6-8.7-0.2 8.5 0 9.8-3.5 17.4-0.2-2.8-0.2-8-1.9-10-1.3 1.1-3.1 8.6-4.6 11.9-0.1-3.9-0.1-8.5-0.5-12.3-1.4 3.3-3.2 10.3-5.7 12.2l-1 0.1c-0.4-2.9 1.9-6.4 0.2-9.2-2.7 0.4-3.1 3.6-4.3 5.8l-3.9 6.3 2.6-7.4c-0.9-1.7-0.9-1.8-2.4-3.1l-0.5 0.2c-1.1 3.3-4.8 8-7.7 9.7l-0.8-0.2 1.3-2.8c0.7-1.6 1.3-4.1 0.4-5.8h-0.8c-2 0.9-2.8 2.4-4.1 4.2l0.9 1c1.3-0.6 0.9-0.7 1.7-0.4-1.2 1.9-1.3 2.8-3.1 3.7-1-0.4-1.6-0.6-2.4-1-2.8 3.2-4.3 5-7.5 7.8 5.4-11.2 18.8-21.2 22.7-34.5 1.1-3.7 3.2-13.3 6-15 4.7-2.8 12.7 0.6 16.9 3.3 10.2 6.1 16.7 14.8 13.6 27.1-0.2 1.6-0.6 2.5-1.1 4-0.6-0.8-0.1-6.2 0-7.6zm-120 3.7c-2.6 1.2-5.1 5.4-6.7 7.8-0.5 1.7-0.5 2.1-1.5 3.5-0.2-1.7 0.3-2.9 0.9-4.6 0.8-1.8 3.4-7 3.7-8.2-3.1 0.4-6.4 6.1-6.7 9-1.3-1.5 2.5-8.3 2.7-10.9-1.1-0.1-1.5-0.1-2.5-0.3 3.6-6.9 29.1-8.6 36.6-8.1-4.1 5.5-7.1 9.6-10.3 15.7-4.8 0.5-8.2 1-12.9 2-1.4 0.2-1.6 0.5-2.9 1.2h-1.4c-0.5 0.1-0.2 0.1-1-0.1-0.2-2.4 1.9-4.3 2-7zm-57.6-33.1c9.9 4.1 24.3 7.6 34.6 11.1 4.6 1.6 10 2.8 14.5 4.8-0.6 0.8-5 3.6-6.1 4.2-9.5 5.7-12 13.6-15.8 23.4l2.1 0.8c-0.2 3.4 0.1 9.5-1.7 12.4-0.5 0.8-2.9 0-3.7-0.2-2.6 2.4-16.1 11.7-19 12.8l-1.2 0.6c-0.8 2.3-5.3 5-7.5 6.4 2.9 8.4 7.5 13.8 14.1 19.9-3 19.6-6.2 34.1-3.7 54.7 1.1 8.9 4.4 16.7 4.1 25.2-3.7-8.2-6.8-16.9-7.9-25.8-0.5-4.2-0.5-8.8-2.9-12.5h-0.7c-2.2 4.9 0.9 27.7 3.2 33.3 1.2 2.8 5 9.9 4.2 12.5-7.4-2-14-53.2-13.4-62.6 0.6-8.4 0.7-17.9 2.4-26.4 0.3-2.9 2.7-7.5 1.5-10.3-4.4 5.1-8.7 32.6-8.7 40.1 0.1 7.3 0.6 14.7 0.9 22.1 0.1 2.4-0.9 5.9-0.6 8.1 1 9.1 5.4 17.8 6.9 26.7-12.3-21.8-14.9-61.3-11.3-85.9 1.5-10.4 4.5-21.4 5.6-31.5-2.6 5.9-4.5 14.4-6.1 20.7-7.7 30.9-8.3 65.5 3.5 95.5 2.6 6.6 5.5 13.2 7.6 20.2-10.7-13.2-11.4-22.7-15.4-37.9-4.2-15.8-6-27.3-7.1-43.8-0.4-5.7 0.2-11.1 0-15.9l-1.3-1.8c-0.8-1.8-1.1-3-0.1-4.9l2-2.6c3.5-30.2 14.4-65.6 27-93.4zm178.3 44.2c2.9-2.4 3.4-3.1 5.5-6.3 2.3 4.1 7.3 7.8 10.4 11.6 10.1 12.6 18.9 37 15.6 53q-0.2 1-0.5 1.9l-0.6 0.3-0.5-1.7c-0.7 1.9-1.8 2.3-2.1 4 1.4 2.5 1 3.8 0.5 6.7 0.9 1.8 1.4 2.9 1.9 4.8-2.4 2.3-6 20.3-7.2 24.5-1.1-1.3-3.7-5.1-4.7-5.5l-1.7 1.3-0.4-0.4c0.3-1.8 1.6-7.9 1-9.2-2.1 1.3-2.8 4.4-4.3 6.4-1.2-2.5-0.9-3-3.6-2.8l-0.3-1.1-1.8-1-1.7-0.6h-0.3c-0.3 2.6-1.2 4.1-3.7 4.6-1.9-0.9-1.2-0.2-2.3-2-0.1-2 0.2-1.7 1.5-3.7-0.1-1.9 0-2.3-1.1-3.9-1.9 3.3-2.1 4.4-5.6 5.7-1.6-1.7 1.6-2.6 1.5-6-2.5-0.4-7.8 4-10.2 5.7 1.8-3.6 4.6-7.8 6.8-11.2 1.3 1.3 1.2 1.7 2.7 2.2l2.3-1.3c1.5 0.2 1.5 0.7 2.8 2.2l2.8 0.8 0.8 0.1c9.7-3.9 2.2-33.8-0.3-41.2l-0.7 0.6c1.3 5.3 3.2 16.7-0.6 21.3-3.3-7.3-1.6-6.7-7-15.5 0.8 5.4 1.5 9.4 1.1 14.9h-0.5c-2.8-10.2-4-17.7-10.3-26.2 3.7 8.7 4.7 13.4 4 22.7-4-11.3-8-27-19.4-32.6 4.2 6.5 8.2 10.8 9.9 18.7-3.6-6.3-6.4-11.9-10.9-17.7-4.1-4-6.5-5.5-11.5-8.4 3.2-1.4 8.2-3 11.6-4.2 0.4 8.5 1.1 4.3 6.2 7.9 1.1 0.8 5.6 7.2 6.9 8.8-1.8-6.8-6.5-10.9-9-18.5l6.4-2.6c2.1 2.6 5.1 6.8 8.2 8l0.3-0.6c-1.1-3.7-3.1-6-5.5-9 5.4-2.4 11.9-3.5 17.6-5.5zm-673.6 12.8c21.8 0.1 40.8-0.4 63.1 1.5-7.9 2.6-14 5-21.3 9l3.3 2.1c6.9-3 24.9-10.3 32-10.6 3.5-0.6 7.1-0.4 10.7-0.3-1.3 0.4-2.9 0.9-4.1 1.1-9.5 3.5-23.7 9.2-29.9 17.1l-0.6 0.7q-0.2 0.2-0.4 0.4c17.2-5.8 32.6-18.8 51.4-20.1 31.5-2.1 62-9 92.8-15.4l-0.5 0.3c-8.6 5-41.6 19.7-46.9 25.8 1.9-0.2 6-2.2 7.8-3.1 39.4-19.6 79.2-35 120.4-50.3-11.8 18.7-28.8 30.3-46.3 43.1-6.5 4.7-12.4 9.7-18.7 14.7 12.5-5 32.6-19.3 42.9-28.1 7.7-6.5 16.4-17.5 23.6-25.1-11 20.3-25.7 38.2-36.3 58.6-26.9 52-30.2 124.6-13.8 180.2 1.7 5.7 3.6 11.2 5.2 16.8-3-4.3-3.5-10-7.8-12.7l-0.8 0.1c-2.1 6.2 7.7 26.8 10 33.4-12.8-16.6-19.7-67.8-21.3-89.6-0.8-11.5 0.1-24.6-3.4-35.6q-0.1-0.4-0.2-0.7-0.1-0.3-0.2-0.5c-3.6 34.6 1.7 82.6 14.3 115.4 3.7 9.4 11.9 24.3 16.6 34-8.1-7.4-19.5-37.5-23.6-39.3-1 4.8 8 20 9.7 25.4-4.7-5-6.7-12.4-9.5-18.5-16.1-34.2-16.5-73.1-13.9-110.1 0.2-3.6-0.3-7.7-0.1-11.4 1.3-18.3 8.7-36 9.2-54.5-6 12.1-14 41.2-16.1 54.9-4.3 27.8-0.5 58.9 3.3 86.6 2.1 14.1 3.2 25.5 6.9 39.3 0.8 2.3 1.2 4 1.8 6.3-1-1.9-2.3-4.1-3-6-6.2-13.3-9.5-29.3-11.8-43.8-0.1-1.2-0.6-1.5-1.6-1.8-2 3.9 7.6 41.2 9.8 47.6 1.4 3.9 3.7 9.1 5.6 13 1.7 2.5 2.6 3.7 3.5 6.6l-0.4 0.7 0.4-0.8v1.1c-1.4-1.2-2.6-4.8-3.8-6.9-8.4-10.7-13.9-27.2-18.3-40.1-1.5-4.5-3.6-10.9-5.8-15l-0.6 0.7c0.2 1.3 0.1 2 0.1 3.3 0.4 10.5 4.6 23.7 8.2 33.3l2.2 4.6c6.9 10.3 12.5 20.1 18.5 31 1.6 3 5.2 8.2 6.3 11.1-1.4 1-3.2 0.9-5.1 1.2-4.5-9.7-9.9-19-14.6-28.6-2.1-4.5-3.9-9.3-5.7-13.9l-2.4-5.1c-3.1-5-4.8-8.9-7.2-14.1 0.5 20.4 12.2 39.3 22.6 56.4 0.8 1.4 2.3 4 1.8 5.7-6.1-2-16.7-27.3-19.8-34.1-4-9.1-12.3-40.3-18.7-46.7l-0.8 0.2c-1.1 2.7 4.3 26.1 5.7 29.8 6.3 15.9 14.7 37.6 25.7 50.7-0.5 1.3-0.1 0.9-1.4 1.3-1.6-0.7-4.2-5.1-5.5-6.9-16.4-22.6-25-48.9-36.8-73.8 0.3 4.1 2.3 20.4 3.5 23.8 6.9 19.8 18.3 40.5 29.7 57.8-2 0-4.7 0.3-6.6-0.5-5.9-2.4-32.6-66.4-37.1-75.9-1.1 24 10.1 41.5 20.7 62 2.1 4.2 6.6 11.8 7.8 15.8-9.7-10.1-18.9-34.3-26.1-47.2-4.1-7.4-8.9-12.8-12.8-20.6-1.4-2.8-8.6-16.6-10.1-18.4l-0.4 0.2c-0.2 5.9 5.8 16.6 7.2 22.7 0.3 1.4-0.3 1.8-1.2 3 4 8.4 9.3 16.6 13.9 24.7 5.8 10.3 12.6 22.2 17.6 33l-0.5 0.3c-6.1-3.5-8.6-8.7-11.7-14.6-10.6-20.2-21-40.4-32.7-59.9-2.3-4-4.4-19.6-6.3-20.5-2.7 4.9 3.6 21.8 5.9 27.1 0.9 2.2 1 2 0 3.9 1.1 3.7 3.1 8.1 4.6 11.7 8.1 16.2 20.6 34.8 28.1 51.5-8.9-9.7-23.4-38-28.8-50.8-1-3-3.7-8.8-5-12.2-6.8-10-11.2-16.9-13.9-28.9-1.1-4.4-0.9-13.8-2.6-16.7l-0.7 0.3c-4 8.4 4.1 32.7 6.7 41.4-1-1.3-1.2-1.8-2.7-2.5l-1 0.3c-0.3 0.9-0.3 1.9 0.1 2.8 8.5 16.3 18.4 32.2 27 48.5 3.2 6 8.3 12.5 10.2 18.8-6.1-6.7-10.5-15.5-15-23.4-9.1-15.8-18.1-31.5-24.5-48.6-1.2-3.1-2.9-5.5-3.5-8.9-1.3 1.5-1.8 2.4-3.4 2.7l-1.8-1.9c1.2 3.1 2 4.7 3.6 7.6-1.6-1.6-3.4-3.4-5.4-4.3l-0.4 0.4c0 11.5 22.8 46.9 29.3 58.2 1.5 2.7 5.3 9.1 5.9 11.6l-0.5 0.5c-4.9-0.8-11.1-14.7-13.7-19.2-15.4-26.8-29.9-55.6-31.3-87-0.1-2.1-0.3-14.5-1.1-15.4-7.6 4.2-2.9 32.9-1.6 40.5 0.7 4.5 0.4 9.2 2.1 13.6 7 18.4 16.6 34.9 27.1 51.5 1 1.6 6.7 10.4 6.7 11.7-2-2.5-5.6-7.7-7.2-10.5-4.8-6.1-12.9-16.5-16.7-23.3-10.7-19.3-18.1-42.8-20-64.8-0.8-9-0.9-17.9-1.3-26.8l-1-0.4-1.1 0.6c-4.5 6.7-3.2 23.7-2.5 31.9 0.5 2.3 0.6 4.5 0.7 6.9 1 7.5 2 14.3 4.5 21.6 6.9 19.9 20.5 36.3 32.4 53.2 1.1 1.6 6.6 10.1 5.7 11.8q-1-0.8-2-1.6l-1.2 0.8c-5.8-2.9-7.5-9-11-14-14.4-21.1-26.2-39.5-29.4-65.5-0.6-2.5-0.3-9.3-0.8-13.3-2.2-1.4-2.6 1.3-3.8-3.8-1.5-6.7-0.8-13.8-0.8-20.3 0-4.2 2.6-16.6 1.4-19.2-1.6 1.2-3.8 9.7-4.7 11.9-5.6 14.9-4.3 31.6-1.8 47 4.2 25.7 21 49.8 35.7 70.8-7.9-2.4-13.2-7.8-20.2-11.6-7.4-4-15.3-7.7-22.9-11-9.6-3.7-28.8-7.8-38.8-3.5-3.1 1.3-9.1 7.9-11.9 10.4-20.5 18-35.5 38-45.1 63.8-4-2.3-7.1-3.5-11.6-4.7 3.6 3 6.9 5.1 10.8 7.7l-2.4 8.1c-2.4-0.6-12-3.7-13.3-3.3l-0.1 0.9c3 3.2 12.3 3.6 12 6.6-0.3 2-2.8 8-3.7 10.2-4.6-2.4-9.3-4-13.7-6.8-6.5-4.4-14.1-8.3-20.1-13.3l0.7 0.1c2.5 0.4 2.8 0.4 5.1 1.4 5 2.1 13.3 2.6 18.5 1.4l0.4-0.6c-2.6-2-8.1-4.4-11.3-6.1-0.2-0.1-1.2-0.2-1.4-0.2-4.1-2.5-7.8-5.5-11.2-8.8-2-2.2-3.8-2.2-6.3-5l3.3-0.8-1.3-3c-2.4-0.8-3.3 0.5-5.5-0.8-0.8-1.4-0.1-5.2 0-7.3-0.2-1.1 0.3-2 0.7-3.2 0.5-3.2 1-5.8 1.7-8.9 0.3-3.8-0.3-15.7 2.2-18.1l1.1 0.2c1.9 1.6 2.6 3.9 3.7 6.2 3.2 3.4 15.5 13.2 20 12 0-0.9 0.4-2.4 0.5-3.3-1.7-1.3-2-1.6-4-2.2l-1.1-0.6c-3.6-2-6.3-4.3-9.5-6.9 2.9 0.8 4.9 1.2 7.6 2.6 0.3-1 3.9-5.2 5-7 2.5-3.5 9.7-15 12.2-16.2 0.4 0.6 1.5 4.2 1.1 4.7-4.3 5-7.9 6.5-11.3 12.5-0.6 1.4-1.3 3-2.1 4.3 0.2 0.5 0 0.2 0.6 0.8 5.6-2.9 6.3-7.3 13.3-9.2 1.3-2.2 4.5-5.7 7.3-5v0.9c-1.5 2.1-3.8 3.1-6.1 4.4-1.5 4.3-8.2 9.6-9.9 14.7l0.6 0.4c6.3-1.6 21.9-17.3 26.1-22.8-1.1-1.5-0.4-0.9-2.1-1.6-2.6 0.4-3.3 2.2-6.1 3.5-1.5-0.4-0.9 0-1.8-1.5-0.2-5.2 7.9-7.9 7-13.2l-0.9-0.4c-4 1.4-8.5 7.1-12.2 5.6-0.4-1.6 9-12 11-15.6l-0.3-0.8c-4.6-0.5-10.3 8.7-15.1 8.2-0.7-3 6.5-11.1 7.9-14.3 1.1-2.4 1.2-2.6 1.8-5.2l0.2-0.7c-4.8 3.1-9.4 7.2-13.6 11 3.3-7.6 9-15.1 10.6-22.8-3.1 2.9-9.6 9.2-13 10.9l-0.5-0.4c0.4-4.5 6.3-11.4 8.5-15.6 1.2-2.3 1.8-4 2.8-6.5-14.9 6.8-16.5 16.8-22.9 30.8-2 4.2-5.2 9-7.8 13 0.3-3.1 0.6-8.6 1.7-11.3 2.3-5.6 6.3-10.2 9.5-15.1 2.1-3.8 4.5-7.9 6.4-11.7 1.8-3.3 9.3-12.7 8.9-16l-0.8-0.5c-3.2 0.6-8.2 6.8-10.4 9.4 3.8-8.9 6.6-13.6 11.8-21.5-4.4 2-6.2 3.1-9.7 6.2 0.7-1.4 1.7-3.2 1.7-4.8l-0.8-0.2c-10.1 3.5-17 19.4-22.5 28.6-1.2 0.4-1 0.4-2.2 0.2-2.3 8.5-4.7 15.5-7.4 23.9-0.5 1.4-0.5 2.3 0.2 3.5 2.4-1.5 4.1-7.3 6.1-8.6 0.2 2 0.6 8.1 0.3 10-0.9 4.4-5.3 10.2-3.5 14.7 4.1-5.2 5.5-7 8.8-12.6-1.1 5.2-3.5 13.5-8.2 16.5-1.1-1.3-0.6-0.7-1-2.7-3.1-5-8.1-19.4-10-25.5-2.9-9.7-8.5-23.4-10.6-33.1-3.3-15.1-4.5-36.3-3.5-51.8-1.5-2.4-1.5-9.3-0.2-11.8l1.8-0.2 1.7-8.2c1.6-9.3 2.5-18.4 3.8-27.8 2.6-17.5 13.9-46.7 29.6-56.2 16.7-10 39.6-13.3 58.2-18.4 9.1-2.5 21.4-7.9 30.3-8.6zm500.9 21.7c4.6-4.8 24.8-17.9 30.7-11.3l0.6 2c5.7 0.6 19.3 16.9 26.9 18.6 2.7 0.5 10.4 2.4 11.6 4.5-1.1 3.5-7.1 0.2-9.4 0-16.1-1.8-22.7-24.3-40.6-19.4-5.1 1.4-12 5.9-14.9 9.7 3.2 0.2 2.7-0.3 6-1.6-1.4 1.2-2.9 2.3-3.5 3.9 1.1 3 6.4 2.5 9.3 4.7l0.1 0.9c-1 1-2 1.5-3.2 2.3-3.5-3-6.8-5.8-9.2-9.9-1.7-1.1-3.1-2.9-4.4-4.4zm-591.6-10.2c4.3-5.2 11.8-8.4 18.1-10.5-5.1 4.3-12.8 7.8-17.8 11.9q-1.8 1.9-3.6 3.9c-1.2 2-2.4 4.1-4.2 5.5-6.2 8.5-14.9 20.2-18.7 29.8-2.8 7.1-4.7 15.1-7.7 22.5 0.3-3.3 0.5-6.4 1.1-9.6-0.6-1.4-0.4-1.8-0.5-3.4-0.1-7.4 8.3-23.2 12.2-29.5 3.5-5.4 12.8-19 19.2-20.6l1.4-0.4zm736.4 15.1c-4.5-4.9-7.3-11.1-12.5-15.3-2.8-2.3-11.3-9-13.7-3.4 7.5 5 6.2 2.7 14.1 10.1l-0.1 0.6-2.3-1.5c-4.1-2.7-6.4-2.4-11-1.3l2.1 1.2c1.9 0.4 4.1 0.9 5.3 2.4-0.8 0.4-0.7 0.5-1.5 0.4-8.6-0.7-15.1 1.4-23 4.5 6.7-5 8.7-5.7 14.8-12.1-4.3 1.3-6.5 2.1-10.6 4-1.3 0.8-1.6 1.1-3.1 1.5l0.1-0.6 2.1-1.5c4.4-2.5 8.8-4.7 13-7.3-7 1.3-10.5 3.5-17 5.9 8-8.3 13.3-10.8 24.4-11.1 10 9.3 12.6 9.6 18.9 23.5zm-10.5 9.3c-12.6-13.5-25.3 0.8-28.4-0.4 0.4-3.6 6.7-5.8 9.6-7.9 6.3-0.5 14.9-2.4 18.1 3.8 0.9 1.7 6.8 3.7 8.4 5.2 1.9 1.6 13.4 14.7 13.8 16.2l-1.5 0.2c2.2 3.2 4.3 3.8 5 8.1-0.3 0.8-0.3 1.3-0.8 1.8-0.9-1.5-1.3-2.9-2.3-4.5-1.4-2.3-6.4-3.6-7.4-5-5.5-7-6.8-12.8-16.4-16.1-3.3-0.3-4.9-0.2-8.2 0.1-14.5 4.2-16.6 12-2.6 20.5 6.1 3.8 16.9-4.1 18.7-1.3-0.8 1.5-0.7 1.7-2.1 2.7-1-0.6-0.5-0.2-1.4-1.2-1.8 1-4.1 4.5-5.6 6.2-0.6 1.7-1.4 2.9-3.2 3.3l-0.8-0.7c0.1-1.4 0.5-1.8 1.1-3-3-0.5-5.8-0.4-8.4-1.9-6-3.6-10.4-7.2-11.6-14.1-1.5-1.7-2.2-2.3-2.1-4.6 1-1.3 0.3-0.8 2.1-1.3 4.5-0.1 9.2-4 15.5-5.4 3.3-0.8 6.9-0.3 10.5-0.7zm-114.5 84.4c-0.9-1.2-3.9-4.9-4.5-6.1-6.2-13.4-9.5-30-9.2-44.6 0.1-6.4 1.1-12.3 1.3-18.5 0.1-4.4-0.8-5.4-0.4-10.1l0.3-0.2 3.2 3.7c-1.2 1.5-1.6 1.3-1.5 2.8 1.7 0.2 2.6-0.5 3.8-1.6 1.8 3.9 2.4 4.7 5.9 7.1 7.9 3.7 11.2 5.4 20 4.8-2.8 15.5-4.5 30.9-3.1 46.6 0.1 1 0.2 1.6 0.2 2.6 0.5 2.1 0.7 4.2 1.7 6.2 0.5 1.5 1.3 2.7 0.9 4.1-1.2-0.7-1.4-2-1.8-3.4l-1.7-6.7-0.3-1.5c-3.8-13.3-4.9-34.3-5.4-48.3-6.8 9-5.5 29.9-4.8 40.8 0.2 3.3 2.3 8.2 1.4 11.3l-0.6-0.5c-4.9-11.9-7.4-39.9-6.9-53.3l-0.3-0.5h-0.6c-4.3 12-4.2 27-3.1 39.5 0.6 7.9 3.6 17.9 5.5 25.8zm33.2-66.9c0.3 1.9 0.7 8.4-0.1 9.9-1-2.9-0.5-3.3-0.9-5.5l-0.1-0.4-0.2-3.8zm-2.5 0.5c0.3 2.2 0.4 2.5 0.2 4.7-0.1 1.3-0.4 2.7-0.4 4 0.2 3.5 0.5 6.9 0 10.5-0.7-1.5-0.6-2.7-0.8-4.4-0.3-4.7-2.5-11.2 1-14.8zm153.9 3.8l2.2-3.6c0.6 4.4 1.2 7.2 3.3 11.1 0.6 1.1 0.5 2 0.3 3.2l0.8 0.5 0.6-0.9c1.9 2.4 11.3 21 11.2 24.3l0.6-0.2 0.7-1.5 0.7 0.2c0.8 1.5 0.7 2 0.8 3.7 2 2.3 4 4.7 4.5 7.8-1.2 0.6-0.8 0.3-2.5 0.1-0.4-2.3-0.6-3.6-3-4.6l-0.8 0.4c-0.3 1.1 2 2.5 2.9 4.6-2 1-2.3 0.9-4.6 0.9l-0.6 0.4c-1.5 0.7-1.5 0.7-3.2 1l-0.6-0.7c0-1.3 0-1.7-0.2-2.9-1.4-1.8-2.2-2.3-2.5-4.5l-0.6 0.3c0 2.4-1.9 3.1-3.7 4.4-2.7-2.4-4.3-4.1-5.8-7.4l-1.7-0.7c-2.3-2-2.2-2.7-5.4-5.2 0.4-3 0.5-7.7 2.7-9.4l1.9 0.8 0.6-0.2c-1.3-0.9-1.4-1-2.4-2.2-1.2-4 2.4-10.6 2.7-15.7 0.5-1.1 0.8-2.7 1.1-4zm-22.7 19.6c1 0.8 1.6 1.4 2.9 1.8-1 2-2.7 4.1-4 5.9-1-1.2-2.4-2.3-3.6-3.3zm-39.1-1.5c-1.2 2.8-1.2 3.2-3.6 5.1 2.9-0.1 3.8-2.2 6.2-1.9 1.1 1.3 0.8 0.5 0.9 2.3-2.2 4-6.8 5.3-8.8 7.5-2.9 3-2.4 4.7-7.1 8.2l-1.2 0.1-0.3-0.6c2.3-5.3 6.3-7.5 9.2-13.8l0.4-0.9q0.1-0.3 0.2-0.6c-5 2.6-10.9 9.4-15.3 10.3l-0.4-1.3c1.4-3.2 4-5.9 5.9-9.7l0.3-0.6c-2.9 1-5.8 1.8-8.4 3.5-0.8 0.6-0.4 0.4-1.5 0.3-3.3-3.4-0.1-3.3 1.2-7-2.2-0.7-3.8 1.4-6 0.8l-0.4-0.8c1.2-2.7 9.6-6.7 12.7-8.3-0.8 2-1.9 2.2-1.7 4.1 2.5 0.9 12.5-6.8 15.2-8.2 1.8-0.9 4.2-1.5 6.2-2.1-2.8 2.3-9.8 6.4-10.9 7.6 3.5 3.3 10.7-2.1 13.7-4l5.1 3.1c-4.1 3-7.1 4.5-11.6 6.9zm-102.2 14.4c-0.8-2.5-0.6-5 0.1-7.4 0.6 1.2 0.3 1.4 0.2 2.9 0.9 5.6 2.1 12.3 2.7 17.8-2-3.4-2.9-9.4-3-13.3zm156.1 7.3c1.7-2.2 1.3-2.4 3.4-3l0.9 0.4c0.4 2.1 0.1 2.2-1.2 4.3l-1.9 4.6c-1.8-3.3 0.2-3.1-0.6-4.7-1 1-0.8 0.9-1.2 2.3l-1.3 0.4-0.4-1.3c0.5-1.8 0.7-1.5 2.3-3zm-9.8 3.5c1.2 0.2 1.7 0.3 2.9 0.2l0.5 0.8c1.7 1.3 1.7 1.4 3.7 2l0.7 0.1 0.4-0.8 2.3 2.1 0.8 2.7c-2.2 1.7-1-0.8-5.4 2.5l-1.2 0.3c-1.3 1.1-2.1 2.2-3.8 2.4l-0.4-0.1-1.5-0.4c-3.8 1.6-6.5 2.9-8.7 6.3l-0.3 0.4c-0.7-0.9-0.5-3.3-0.6-5l-0.7-0.3c-1.2 0.7-1.1 0.8-2.5 1l-0.3-0.5c1.4-2.2 4.4-3.7 6.6-5.8l0.4-0.3c1.1-2.2-0.1-1.4 1.1-3.1 1.4-2.9 2.6-4.8 6-4.5zm16.9-3.7c1.9 2 3.8 3.5 3.9 6.1l-1.6 1.2c-1.5 0.4-4 1.4-5.3 1 0.7-3.1 1.8-5.4 3-8.3zm38.7 17.5c0.3 2.5 0.6 3.8 0.4 6.4-0.6 0.7-0.8 1-1.7 1.5-3.3 1.7-8.9 4.1-12.3 4.9q-4.7-1.4-7.5-2.2c-0.5 2.5 0.8 4.8 0.6 7.9l-0.8 0.7c-1.7 1.3-2.2 2.4-2.3 4.5-1.6 2.1-4.9 2.8-7.5 3.7-1.6 2.2-2.2 2.5-2 4.9 0.7 1.1 0.7 0.8 1.1 2-3.5 4-25.1 14.9-29.6 11.3 1.5-2.5 8.4-2.5 10.7-4.7 0.1-1.9 0.1-1.4-1.1-3.3l0.6-0.2 1.7 1.2c1.5 0.2 4.6-1.5 6.2-2.2q-1.8-2.1-3.5-4.3c2.2-0.1 2.5 1 4.8 0 1-1.2 1-1.1 1.2-2.6-1.1-2.1-4-4.8-5.5-6.9-5-6.5-2-13.6 4.2-18 6.7-4.7 15.5-1.9 23.1-2.4 7-0.4 11.9-3.7 19.2-2.2zm-313.1 14.5c1.9 4.1 3.2 8.1 4.6 12.3 2.7 5.5 15.8 27.5 20.2 30.3 0.6 4.4 0.9 5.8 2.5 10-1-1.6-2.4-3.6-3.2-5.3-2.1-3.4-4.7-8.9-7.2-11.6l-0.8 0.1-1.1 1.8-0.7-0.4c-1.5-2.4-10.6-22.3-11.2-24.9-1.3-4.3-2.3-7.8-3.1-12.3zm66.6 39.2c0.3-3.2-1.1-7.3-2-10.5 3.4 5.9 8.2 12.1 11.1 17.8-1.5-1.7-3-3.8-5-4.8l-0.9 0.2c-1 1.7-0.7 3.3-0.7 5.3l0.7 6.4c0.5 2.8 0.9 5.2 1.3 8 2.1 4.1 5.2 14.2 7 15.6l1 0.2c2.9-3.3-0.5-8.3 1-11.4 1.3 2.3 1.3 5.2 2.7 6.3l0.3 2c-5.7 8.2-4.2 14.2-5.3 23.4-0.1 0.9-2.7 8-3.2 9.8-0.1 0.6 0 0.3-0.5 0.9-0.5-1.5-0.4-3-0.4-4.6-0.3-5.2 0.8-10.4-4.7-12.3-0.1-2.8 1.9-5.5 2.1-7.7 0.8-6.1 0-13.5-0.6-19.5q-0.5-4.4-1.1-8.7c-1-3.5-7.2-14.7-5.3-16.5l1.9 0.7zm132.6 6.6c3.4-3.5 3.2-3.6 7.5-5.8-1 2.3-5.5 6-7.7 7.1zm-5.1-0.3l-0.2 4.4c-3.1 1.4-4.5 1.7-7.7 2.4 2.1-6.2 2-3.8 7.4-6.6zm-100.3 2.7c-0.8-1.3-2.6-9.9-3-12 1.6 4.9 3.2 9.3 5.9 13.7 0.4 0.6 0.4 0.8 0.6 1.4-0.9 3.3-1.4 5.5-1.9 8.9 2.8-3.5 4.9-6.8 6.3-11.1 0.5-1.7-0.4-4.5-0.9-6.1 1.2 0.6 1.7 1.5 2.5 2.7 0.2 1.2-2.6 10.1-3.1 12.2-1.5 6.4-0.8 12-1.5 18.3-0.1 1.4 0 1.5-0.5 2.7-0.6-2.2-0.5-3.5-0.6-5.8-0.2-3 0-5.7-2-7.9-3.8-0.4-6.3 13.8-6.8 17-1.5 13.9-1.2 21.6 1.1 35.2-1.1 2.4-2.3 4.7-3.5 7.1 2.5-15.4-1.6-27.9-2.3-42.9l0.2-6.7 1.1-2.8c0.7-2.6 2.8-10.2 5-11.5 0.2 1.2 0.3 1.5 0.8 2.6l0.8-0.3c3.2-4.9 0.7-9.3 1.8-14.7zm73.4 3.7c1.7-1.6 3.5-4.6 4.7-5 0.6 3.2-3.4 12.8-8.9 10.3l-0.3-0.4c1.1-1.3 1.7-2.1 2.5-3.6-0.7-0.9-0.4-0.3-0.8-1.6 1.6-4.7 3-6.8 5.6-10.9-0.8 3.2-3.1 8.8-2.8 11.2zm-147.7-0.3l1.2 2.7c2.1 2.7 3.8 4.8 5.5 7.8-1.6-1.6-4.6-4.6-5.9-6.3l-0.9 0.4c-1.2 3.9 6.1 16.1 3.3 18-0.7 2.6 0.4 5.3 0.5 8.1-0.9-2.6-1.8-5.4-2.5-7.9-2.5-9.5-7.1-18.2-9.3-28.3 1.7 2.3 4 7.6 6.4 7.7l0.7-1.1c-0.6-3.6-4-8.8-5.3-13.7l0.4 0.1c2.4 4.1 4 8.1 5.9 12.5zm-8 11.9c-1-2.3-1.9-4.8-2.8-7.2h0.1v-1.6l-0.5-0.6 0.5 0.4-0.4-0.3 0.1 0.6c2 2.3 2.5 5 3.6 8.1 5.1 12.2 11.2 23 11.7 36.3-3.5-7.6-6.6-15.6-9.2-23.6-1.3-3.9-2-8.4-3.1-12.1zm26.8-26.2c4.5 7.5 21.5 45.1 18.1 52.7-2.8-13.6-7.7-23.6-12.6-36.5-1-2.7-5.6-14.3-5.5-16.2zm-49.4 28.1c0.3 2.5 0.5 2.8-0.1 5.1-0.7-1.1-0.5-0.5-0.6-1.9-1.1-5.5-5.2-17.9-5.6-22.5 2.6 4.6 4.9 14 6.3 19.3zm122.1 21.9c0.7-4.7 0.6-17.2 4.8-19.9-0.2 3.1-0.9 8.5 0.7 11.1l-0.1-0.2 0.8-0.6c0.1-2.2 0-2.8-0.4-5 0.5-3.9 0.9-6 2.5-9.5l0.5-0.2c0 3.5-1 7.5-1.6 11.1 10.5-10.6 5.3-10.3 10.8-23.8 0.7-1.6 1.2-2.2 2.6-2.8 1.3 2.5-5.1 11.3-4.4 14.9h0.6c1.6-1.2 2.8-3.5 4-5.3l0.2 0.5c-6.4 20.1-8.5 14.9-21 29.7zm-47.4-7.8c5.5 5.9 3.1 25.9 3.7 35.4 0.4 3.2 0.3 5.2 0.3 8.4 1.1 9.7 1.4 20.1 2.9 29.7 0.4-1.9-0.5-1.4 0.4-3.1 0.8 0.9 0.3 1.5 1.4 3.3-0.2-2.4 0.6-2.8 1-4.9l0.5 0.9c2.4-7.8 0.9-20.8 1.5-28.9 0.1-2.6 3.2-11.5 4.1-14.5 1.9 10 2.6 14.2 5.6 24.1-4.5 17.5-13.6 49.9-30.7 58.9-15.7 8.2-35 14.2-52.5 17.3-5.3 0.9-11.2 0.1-17.1 1.4 6.6-8.6 11.1-16.9 16.8-25.8-1.3 7.5-3.5 15.3-8.6 21.2l0.1 0.6c8.1 1.1 15.4-15.8 17.5-22l2.4-5.9c-0.2 2.2-0.3 4.7-0.8 6.8-1.6 8.8-2.8 11.4-7.8 18.8 10.2-6.1 14.8-13.2 17.7-25.1 2.3-9.7 4.9-27-0.3-35.8 1-4 3.2-8.5 4.4-12.6 1.2-4.1 2.3-8.1 3.6-12.2 0.2 29.5-2.1 55.7-12.5 83.7 10.4-8.2 12.4-17.5 15.7-29.8l0.7-3.7c-0.2-2.7 0.1-4 0.5-6.7 0.7 2.8 0.7 7.2 0.2 9.9-0.2 1.6-0.3 3.7-0.6 5.2-0.5 8.1-4.2 14.3-8.3 21.1 19.6-10.2 16.7-30.2 16.2-49.6-0.1-3-1.3-9.3-0.2-11.9 1.1 0.2 0.7 0.3 1.5-0.1l2-7c0.2-2.7 0.3-3-0.3-5.6l-0.6-0.1-0.7 1.8c-0.6 1.4-0.6 1.6-1.6 3l-0.5-0.6c0-1.5 3.1-20.4 3.6-21.8 2.2 4.6 3.2 57.3 3.8 66.4 0.2 3.5-3.9 17.8-4.6 22.9 13.6-18.1 13.6-40.5 10.3-62.1-1-6.1-4.4-10.3-4.1-17.1 0.2-5.4 1.6-9.7 2-14.7-0.1-3.4-0.2-7.5 0.3-10.8h0.6l0.3 1.5c1.1 8.4 2.2 17.1 3 25.6 0.1 2.1-1.5 3.6-1.2 6.8l3.1 30.4c1 10.5 2.7 21.4 1 31.8 8.8-16 6.9-40.3 5.9-58.1-0.1-1.8 0.2-2.2 1.3-3.5 0.2-3.3 0.2-3.9-0.3-7.2-0.1-3-1.4-10-2-13.2-2.2 7.9-2.7 9.1-2.3 17.2-0.9-3-4.7-16.7-2.6-19 1.2 2.1 1.3 4.1 1.6 6.5 2.6-11.8 2.4-15.1 2.2-27.3-0.6-2-1.2-3.4-0.9-5.3l0.6-0.1c1.1 2 0.8 3.1 0.8 5.5zm-617.8 10c0.5-2.7 0.8-4.3 1.6-6.8-0.1 2.7-0.2 6.1-0.6 8.8-1.7 24.4-1.5 40.4-11.5 64.2 1.6-11 4.8-22.1 6.8-33.4 2-11.6 2.2-21.5 3.7-32.8zm648.2 13.9c-0.6-3.5-0.4-11.9-0.3-15.5l0.5-0.1c0.9 4.8 0.3 11.1 1.2 17l0.2 0.6 0.6 0.2c2.4-3.7 1.8-14.9 2.6-19.8 0.7-3.8 1.2-5.8 2.3-9.6 0.2 5.7 0.3 17.4 1.2 22.7-2.2 3.6-5.7 9.1-8.2 12.4 0-2.6-0.1-5.3-0.1-7.9zm-122.7 0.8c-0.8 1.3-1 1.4-1 2.8 2.6 24 3 45.6-7.6 67.9 0.8-7.5 2.2-22.8 1.3-30.3-0.3-1.8-0.9-3.3-1.2-5.3-2.2-12.9-0.6-24.6-2.1-37.5-1.9-16.4-2.9-32.1-7-48.1-2.9-10.9-7.1-20-10.2-30.3 20.9 34.3 33.1 62.5 33.7 103.4 0.4 3.5 0.6 5.2 0.1 8.7l-0.4 0.4c-0.5-2.1-0.5-2.5-0.6-4.6-0.6-9.1-1.8-18.5-5-27.1zm-477 12.1c0.1-4 5.8-11.4 8.4-14.5-1.4 5.2-3.5 12.3-7 16.5l-1.3 1.8c-0.8 2.6-2.9 10-4.7 11.6l-0.8-0.2c-2.7-4.4-0.8-14.5 4.2-14.1l0.7-0.1zm540.7 17.2c0.4-7.3 1.2-17.2 3.3-24.2 0.3 3.7 0.7 26.5-0.4 28.4-0.9-1.4-1-1.7-1.6-3.3-0.4 1.3-0.5 1.8-1.1 2.9l-0.6-0.1c0-1.8 0-1.8 0.4-3.7zm-27.8-4.4c-0.6 4.3-1 6.7-2.1 10.8-2.2 9.1-3.5 17.5-5.1 26.7-0.1 2.2-0.5 4.3-0.8 6.5-0.2 0.6-0.5 1.3-0.8 1.9-0.5-1-0.2-1.5-0.1-2.9 1.2-6.3 1-12 0.9-18.4-0.4-3.6-1.6-14.9 2.9-15.5l1.6 1.3c1.4-2.8 1.6-6.3 3.5-10.4zm-393.4 10.2c2.2 0.7 2.3 0.3 3.4 1.8-0.1 1.9-1 5.5-2.3 7-2.3-1.2-12.4-5.9-13.2-7.5-3.1-0.7-4.7-1.3-7-3.4 3.3 0.5 4.5 1.1 7 3.4 4.1 0.4 9.3 5 13.7 4.1 1.2-1.1 0.9-0.4 1.1-2-0.9-1.5-1.8-1.9-3.4-2.9-1.4-0.6-2.7-1-3.7-2.1 1.7-0.1 2.8 0.8 4.4 1.6zm-33.8 15.5c4.8 1.2 10.3 4.6 13.2 5 2.1-1.1 2.2-1.4 3.6-3.3-3.8-2.6-8.4-6-12.4-8-2.1-1-2-0.7-3.7-2.4l0.1-0.7c2.7-0.1 9.2 4.9 13.1 6.3 5.6 1.9 13.1 5.3 18.6 7.1-0.7 2.1-1.3 4-2 6.1-0.2 1.1-0.1 1.5-0.6 2.4-0.7 2.4-1.7 5.8-2.7 8l-0.7 1.3c0 2.7-1 5.7-2 8.3-4-3.7-11.4-7.3-16.3-10.7-7.1-4.9-14.1-11.7-20.7-16.7-1.4-0.8-1.5-0.7-2.4-2l0.7-0.2 2.2 1.2c3.6 2 7.7 4.1 11.2 6.4 4.3-0.5 4.6 2 9.3 3l0.6-0.6c-2-2.7-5.7-4.4-6.5-6.8-0.2-0.2-3-2.3-3.4-2.7-1.9-1.4-5-2.4-6.4-4.5 3.1 1 4.3 2.5 7.2 3.5zm433.6 0.9c-0.2-4.6 0.6-22.1 2.3-25.8l0.6-0.2c2.6 4.4-0.9 25.7-2.1 31.1-0.6 3.2-0.9 4-2.2 6.9 0.7-3.9 1-8 1.4-12zm-454.8 4.4q13.8 8.5 27.8 16.6c2.9 1.7 11.9 6.4 13.9 8.3l0.9 0.2 2.4 0.8c0.8 1.6-3.2 13.2-4.1 15.7l-0.7 1.2c0.2 1.2-2 7.7-2.6 9.3-14.4-7.7-27.1-15.8-39.5-26.6-2.5-2.2-12.6-9.3-12.4-12.2 1.9 0.4 17.1 11.8 20.7 13.3 6.4 2.8 13.5 8.1 20.2 10.3-8.2-8.6-18.8-15-27.6-23q-5.3-4.9-10.6-9.8c5 1.6 8.1 4.5 12.5 7 10.5 5.8 23.1 14.6 33.8 19.4-4.2-4.5-10.3-8.4-15.1-12.5-5.9-4.9-13.2-11.9-19.3-16.3-1.6-1.2-2.3-1.5-2.9-3.2 1.2-0.1 1.3 0.5 2.6 1.5zm419 37.5l-0.1 0.4c-0.9 2.7-2.8 7.8-5.5 9.2-0.1-1.5 6.1-16.1 7-19.5 1.8-7.8 7.6-36.8 12.7-42.4l2.1 1.2c0.6 4.1-1.7 20.8-2.6 25.1l-1.1 6.4c-0.6 3.5-1.2 6.9-2 10.5-0.2 3.2 0.3 4-0.9 7.3-1.4 3.9-4 11.3-8.7 11.7l-0.4-0.6c1.3-2.3 2.7-4.6 3.8-7-2.6-0.4-2.4-0.4-4.3-2.3zm-546.1-4.9c0.1-1.5-0.2-1.1 0.5-1.9 0.6 2.5 0.6 3.5 0.1 6.1-0.1 2.2-0.2 3.9-0.1 6.1-0.1 11.5-0.8 22.9-2.3 34.3-0.2 1.5-0.1 1.7-0.8 3.2-0.7-1.2-0.5-2.7-0.4-4.1-0.4-15.2-0.1-22.2 2.1-37.1 0.2-2.5 0.5-4.2 0.9-6.6zm36.8 3.6c-2.1-4.1-2.9-5.5-6.4-8.8l-0.4 0.5c-1.4 1.9-4.3 7.1-5.1 7.9l-0.6-0.5c0.1-3.7 7.3-19.4 9.1-25.4l0.4 0.6c1 1.5 1.8 2.6 2.4 4.3 1.3 3.7 4.9 6.6 7.8 9.4-5.1-3.6-6.9-3-11.7-7.2 0.8 3.7 1 4.3 2.9 7.6l-0.2 0.6-1.3-0.1c-0.4 2.1 2.4 6.4 3.7 8.2 2 2.9 7.6 3 8.7 6.9l0.6 0.1 1.1-0.8c2.1 0.8 2.8 3.8 6.9 4.4l0.1-1.6c1.8 0.3 18.3 8.9 22.2 10.5-0.7 1.3-3.3 6.3-3.7 7.5-2.7-1.2-6.9-2.2-9.9-2.9-3.7-0.9-5.7-2.5-9-4.5l-1 0.6-0.9-0.4c-3.4-1.1-6.1-5.4-8.5-8.4h-0.6c-1-1.4-2.1-2.8-3.1-4.1-0.2 2.5-0.6 2.7 0.3 4.7 1.3 0.6 0.9 0.5 2.3 0.8l-1.8 0.4-0.2 0.9c1.8 2.2 3.3 2.6 4.7 4.8l-0.1 0.6c4.5 5.6 17 8.3 23.9 9.1q1.7 0.2 3.4 0.3l-2.4 3.6c-0.9 1.3-1 1.4-2.5 2.1-1.6 0.1-1.8 0-3.3-0.2 0.4 1.4 0.6 2.4 1.2 3.8-2.5 8-9 6.3-10.7 9l0.3 0.9c1.4 0.8 1.8 0.9 3.3 1.4-0.1 1.8-3.9 10.2-4.7 12.8-6 18.7-5.6 37.1-6 56.4-0.6 21.7 5 40.6 15.4 59.6-16.8 3.2-20.6 2.8-37.2-0.2l-0.1-0.8c-0.4-3.8-2.6-6.4-2.7-8.2 1.4 0 2.1 0.3 3.4 0.8 2.3 1.7 4.7 3.3 7.5 3.9l0.5-0.3c-1-2.3-3.6-3.7-5.7-5.2-2-2.2-7.5-5.9-5.2-8.8 3.4 3.8 7.1 7.2 11.1 10.3l0.6-0.3 0.2 0.6c0-1-1.3-2.2-2.1-3.2 3.2 2.3 5.5 3.8 8.9 5.8-1.9-2.9-4.4-5-6.2-7.6-1.4-2.1-4.2-4.4-5.1-5.7 1.5-1 1.6-2.3 2.3-4.3-1.1-3.7-3.5-9.2-5-13.2 2.6 2.3 5.7 4.1 8.2 6.3l0.7 0.6 2-1.1c-4.2-4.7-7.2-7.2-10.5-13l-0.4-0.7c2.4 1.5 5.6 4.2 7.9 6 1.2-0.9 1.6-1.1 2.9-1.7-4.8-5.1-7.9-10.8-10.3-17.2 2.7 2.2 4.2 4.2 7.2 6.3 1 0.5 2.8 2.4 5.2 3.4 1.1-1.2 0.8-0.5 0.9-2-1.1-1.7-3.5-3-5.2-4.2-0.4-0.8-5.8-7.6-6.7-8.8l-0.6-5.2c4.1 4.3 5.8 5.9 10.8 8.8l0.7-0.3c0.2-4.5-11.6-10.7-11.5-17.5l0.5-0.4c4.1 2.7 5.8 6.9 11.3 9.9l0.7-0.5c-2.2-5.1-14.3-15.7-12.6-20.3 3.7 1.5 7.5 9.2 11.9 8-1.6-4.6-14.8-14.4-13.4-21.2 3.5 1 4.9 7.6 9.6 8.2l0.5-0.7c-0.9-4-8.2-11.5-10.6-15.3-1.3-2.1-1.9-3.6-2.9-5.9 3.5 2.8 7.2 6.8 10.6 9.8 3.6 3.1 6.9 5.5 10.8 8.2q-10.3-11.5-20.2-23.3l-0.8-5.7c-0.4-1.5-0.3-3.8-0.3-5.4-0.4-1.3-0.7-3.3-0.9-4.6-0.4-2.3-0.7-4.5-1-6.8-1.1-2.4-4.7-19.1-4.1-22.1l0.7-0.5c3.6 1.8 10.2 14.4 12.4 18.3 1.9 3.2 8 11.3 11.8 11.5 0.1-2.4-5.6-9.8-7-13.4-1-2.4-1.9-3.7-3.3-5.8-0.9-1.2-1.4-1.7-1.6-3.2 1.3 0.3 1.4 0.9 2.6 2.2 2 2 7.8 8.5 10.1 8.6l0.8-0.3c0.2-1.3 0.7-2.4 1.2-3.7-3.9-6.2-13.6-13.5-14.7-20.2 1.6 0.1 1.7 0.4 2.6-0.4 0.6-2.3 0.5-2 2.2-3.7zm-11.7 9.7c1.2 2.1 3.9 4.6 4.6 6.2-2.7-1.5-3.4-2.7-5.2-5.3-0.7-1.5-2-3.4-2.9-4.8l-1.5 0.1c-0.1-1.4 0.3-1.8 0.9-3.1l0.9-0.1c1.3 1.3 2.4 5.1 3.2 7zm-34.6 15c-0.1-5.2-0.1-26.2 2.1-30.6 0.3 3.5-0.5 19.1-0.7 23.4q0.1 7.1 0.1 14.2c-0.9-2.1-1.6-4.8-1.5-7zm580.6-0.4c-0.3-2.2-0.6-1.3 0.5-2.9 2.4-1 3.2 0.2 5.2 1.7 0.7-1.2-0.1-3.6-0.5-5.1 2.6-1.4 5.1-2.9 7.8-4.1-4.1 12.4-11.7 23.7-15.3 36.9-1.1 4-2.1 17.2-2.6 18l-0.1 0.4c1.7 2.7 0.9 5.2 0.7 8.2-0.6 9.4-2.6 16.4-11.9 20.2-1.1-0.6-0.6-0.2-1.2-1.5-0.8 0.3-2.4 1-3 0.9 0.6-1.3 0.8-1.5 1.6-2.7-0.7-1.7-2.1-1.7-3.9-2.2l3.8-0.5c0.6-1.7 0.5-0.8-0.2-2.7-9.6 0.4-12.9 1.2-22-3.1-0.9-1.9-0.9-2-1.1-4.2l0.4-0.6c4.2 1.6 9 3.5 13.3 4.3l0.1-3.7c-3.3-2.1-3.6 0.8-5.9-2.5-0.5 0.3-0.8 0.4-1.4 0.7-2.9-3.8-5 2.1-8.2-1.5 0.2-1.6 0.2-1.8 0.7-3.4-2.6-4.3 0.8-15.2 2.9-19.5 0.5-1.8 0.5-1.7 2.1-2.3l1 0.6-1 0.6 0.4 0.7c2.7 3.8 3.5 6.5 7.5 9.4 1.8-2.1 7-1.9 9.6-1.4v-0.4c1.7-0.7 4.4 1.7 8.5 0.7-1.6-1.5-4.9-0.1-7-1.8l0.1-0.6c-7.1-2.1-8-7.6-10.4-13.9-0.1-3.4-0.8-4.7-0.7-8.3 0.8 1.3 1 2.8 1.4 4.3 1.9 6.2 7.2 12.4 12.2 16.4-1-3-1.7-5-2.9-7.9 3.4 3.7 4.6 4 9.1 6.1l-0.2-0.5c-1.8-7.5-5.6-14.8-8.6-22.1-0.5-1.8-0.6-1-0.1-2.5l0.9 0.3 0.3 1.4c0.8 3.1 5.3 13 7.5 14.9 1.8-2.1 0.1-3.8 1.6-3.9 0.4 0 0.7-0.2 1.1-0.4l-0.6-2.1c-1.1-2.4-3.9-8.5-4.2-11 2.4 3.1 3.6 6.5 5.9 9.7l0.3-0.7 0.5-0.9c2.8-5.4-2.4-9.8-0.6-13.3 2.8 1.2 4.4 7.3 6.7 8.4 1-1.7 0.4-4.1 0.2-6.1l-1.3-1.9c-0.1-1.8-0.3-0.9 1-2.6zm-110.7 25c2.3 0.2 1.9-0.2 3.3 1l0.2 0.9-0.9 0.6c-1.2-0.2-1.3-0.2-2.4-0.7-1.3-0.5-2.5-0.7-3.2-1.7q1.5 0 3-0.1zm7 6l2.3 0.3 0.2 0.5c-2.8 0.6-6 0.6-8.8 0.1-3.3 0.4-9.2 0.5-10.7-3.2l0.9-0.6c5.3-0.5 11 1.5 16.1 2.9zm-10.4 28.7c-1.4 1.6-2.1 1.7-4.1 1.9-1.8-0.9-1.1-0.2-2-1.9l0.4-1.2c2-1.2 2-0.8 4.7-0.7zm-316.4-2.6c4.8 4.7 14 13.7 20.6 15l0.6-0.5c-1.6-5-17.4-20.4-21.9-24.3-6.4-5.6-8.7-5.9-13.8-13.9 9 7.5 23 18.6 33.8 22.1-9.4-9.7-19.3-18.8-29.8-27.4-3.6-2.9-10.3-6.7-12.1-10.1l0.3-0.9c2-0.2 33.9 23.4 39.7 26.6 3.5 18.6 5.3 26.6 11.4 44.7-7.7-9.2-24.9-20.9-29.8-29.7-0.8-1.5-0.9-1.4-1.2-3l0.5-0.2zm320.3 7.6c1.6 0.1 2.1-0.2 3.1 0.6-1.5 0.4-1.5 0.4-3 0.4-4.1 1-6 1.8-9.6-0.3l0.1-0.9c2.6-1.7 6.5-0.4 9.4 0.2zm78.3 2c1.9-0.2 3-0.5 4.6 0.3l-0.1 0.5c-1.8 0.5-1.8 0.5-3.6 0.6-2 0.5-4.5 1.5-6.5 2.2l-2.9-6.7c3.5 1.7 4.7 2.3 8.5 3.1zm1.8 17.8c4.7-0.1 8.9-1.8 13.3-3.3-0.7 22.7-1.6 61.7 15.1 79.2 1.7 1.8 10.2 8.3 10.4 10.1-1.9 1.8-4.8 3-7.1 4.2-2.4-2.6-2.9-2.6-6.4-2.8-6.6-0.4-13.4 1.6-19.8 1.8l-2.2-5.3c1.1-1.4 2.2-3.2 3.8-3.6 2.9 1.5 2.3 5.9 6.5 1.9 1.5-1 3.6-2.4 4-4.2l-0.5-0.1c-1.7 1-2.4 1.7-3.9 3-0.8-1.3-1.9-2.7-2.8-3.9q1.1-0.5 2.2-1c1.7-0.8 2.6-1.2 3.2-2.9l-0.8-0.6c-2.5-0.2-4.2 0.7-6.7 1.6q-0.7-2.6-1.4-5.2c2.7-1.3 4.4-2.1 6.2-4.5l-0.4-0.7c-3.6-0.1-6.9 5.3-9.4-1.6-1.1-3.1 5.4-2.5 7.6-5l-0.4-1c-2.4-1.1-5 1.1-7.3 0.4-0.9-0.2-1.2-0.3-2.2-0.5l-0.2-1.2c1.3-2.9 5.4-2.5 8.4-4.6-0.6-1.1-0.2-0.6-1.8-1.2-3.5 1.1-3.6 0.1-6.9 1.1l-1.8 0.4-1-0.7c-0.7-2.1-0.6-1 0-3.3l1.2-0.5c1.9-0.5 5-1.4 6.8-1.2 1.3 0.1 0.4 0.3 1.7-0.5-0.2-1.7 0.2-1-1.2-2.1-2.9-0.6-6.3 1.8-8.2 0.4-0.2-1.8-0.4-2.1 0.2-3.9 2.2-0.3 7.6 0 8.5-1.9-2.3-2.3-7.2-2.2-10.6-2.5 3.6-1 8.5-0.8 10.2-2.2-0.3-1.7-0.1-0.9-1.7-2.4-1.9 0.3-3.2 0.6-5.2 0.8l-0.6-0.9c0.2-1.8 0.3-2-0.5-3.7 0-1.4-0.1-1.3 0.5-2.5 3.4-1.9 5 1 7.1-2.4l-0.3-0.7c-2.1-0.9-4.3-0.8-6.6-0.9-1-1.1-0.8-1.1-1-2.6l0.6-0.5c2.9 0.3 3.5 0.2 6.4-0.3l0.4-0.5c-1.6-0.7-2.5-0.9-3.8-2 0.7-1.2 0.6-0.7 0.6-1.9l-1.4 0.3c0.1-1.8 2.1-0.6 3.6-2.8-1-0.9-4-1.1-5.6-1.4 3.9-0.9 7.5-2.2 11.3-3.4-4-0.1-6.3 0.4-10.4-0.4-1.3 0.1-0.9 0.1-2.2-0.2-0.9-1.4-0.8-0.7-0.5-2.3 1.3-1.5 0.7-1.1 3-1.4zm-361.5 33.7l0.9 1.2 0.3-0.1c0.8-4.4-16.6-21.2-19.8-25-2.7-3.1-6.6-6.8-10.6-8.1-1.4-3.9-3-7.5-4.6-11.3 7.8 11.2 13.9 14.7 24.8 22.4l2.1-0.4c2.7 1.5 10.5 20.6 14.5 25.7 7.4 9.4 12.8 13.3 21.2 21.2-10.8-3.2-14-2.6-25.1-2.4-0.7 0-0.7-0.3-1.5-1.2l-0.8 0.1c-0.7 2.7-1.1 5.4-4.6 4.8-1.3-1-1.3-1.3-1.9-2.9 0.8-1.2 0.9-1.5 1.2-2.9l0.2 0.8c1.2 0.9 0.5 0.6 2.1 0.9l0.8-0.7c-0.8-2.2-17.7-17.1-20.6-19.6-0.1-2.2-0.4-4.5-0.6-6.7 2.8 3.7 19.8 17.3 23.9 16 0-6-23.9-21.7-25.7-30 3.4 4 18.7 14.5 23.8 18.2zm-150.4 11.7c-1.3 0.1-2-0.3-3.2-0.8-0.3-1-0.6-1.8-0.8-2.8h0.3l0.2-0.3c1.6 1.3 2.2 2.3 3.5 3.9zm434.8 41.4c-1.4 1.7-1.7 2.3-3.4 3.6l-0.6-0.2q0-0.7 0.1-1.4c0.1-2.1 0.5-4.8-0.9-6.4-1.3 0.4-1.2 0.8-2.2 2.3-1.6-1.4-1.8-8.1-0.4-10.2 1.2 0.2 0.6 0 1.6 1.6-0.3 3.1 3.5 8.5 5.8 10.7zm115.5 11.8v-1.2c2.4-1.7 4.4-3 7-4.5 2.1 5 10.4 18.6 9.4 22.2h-0.8c-2.1 0.5-1.8 0-4.1-0.6-1.8 0.3-1.9 1.2-3.9 0.9-0.9-0.8-0.9-0.8-1.1-1.9l-1-0.1c-0.7-0.7-6.5-9.5-7.2-10.7 0-4.4 0.7-0.7 1.7-4.1zm-548 0c3.5 0.2 13.9 1 16.8 2-2.7 0.4-10.9 0-14.2 0.1-4.3-0.2-11.3-0.3-15.3-1.1 4.3-0.5 8.4-0.3 12.7-1zm467.4 17.5c1.6 2.4 1.9 4.2 2.8 7-2.2-2.8-2.6-3.8-4.1-6.9-1.5-0.7-0.8-0.7-2.1-0.3 0 1.8 1.9 4.9 2.8 6.7-1.8 0.9-4.5 2.7-6.4 2.8-2.2-3.4-5.2-13-5.4-17.1 0.9-1.3 1-0.5 2.7-1 0 0.1 1.8-1.4 1.9-1.5l1.3 0.3c2.2 1.9 4.9 7.2 6.5 10zm380.5-605.6c-1.1 8.6-5.7 17.4-11.6 23.8-2.6 2.8-5.2 5.2-7.5 8.3h-0.5c0.6-1.5 1.2-2.4 1-3.9-2 0.8-7.4 7.2-10.4 9.2-0.7-1.7 1.3-3.2 0.3-3.7-4.1 3.5-5.2 6.7-10.1 8.5l-0.6-0.4 0.4-2.9c-1 0.1-3.5 2.7-4.6 3.7-0.2 0.7-0.2 1-0.6 1.7-1.5-1.2-2.8-2.5-4.4-3.4l-0.7-1.7c-1.1-1.3-5.6-6.2-5.8-7.4 2.6-1.4 5.3 1.6 6.9-1.1-1.1-2.8-4.4-3.5-7.2-4.6 7.5 0.4 10.8-0.3 17.9-0.6 0.6 0.7 0.9 1.1 1.4 1.9h0.6q0.1-1.3 0.2-2.5c12-6.4 21-10.5 30.5-20.6-0.5 2-1.2 4.3-1.6 6.3 1.1-1.9 5.3-9.6 6.4-10.6zm-123 3.8c1.9 1.1 2.6 1.1 3.3 2.6-0.8 1.2-0.8 1.1-2 1.9-1.1-1.6-1.5-2.1-2.2-3.9zm-6.2 0.2c0.8 1.5 3.3 5.7 3 6.8-0.4-0.2-0.7-0.3-1.1-0.6-1.1-1.5-3-3.7-3.5-5.4zm-5.2 1.6c0.8 1.7 2.6 5.1 2.6 6.8l-0.6-0.1-0.4-0.8-0.3-0.4c-1.2-1.8-1.4-2-3-3.4l-0.3-1c0.9-0.6 1-0.7 2-1.1zm-65.3 22.7c-0.7 1.6-1.4 3.4-2.3 4.9h-0.7c-0.3-3.1 0.1-3.5 3-4.9zm-7.7 6.5c-0.3 1.9-0.6 5.8-1.9 6.8 0-2.4 0.1-5 1.9-6.8zm-1.2 7.5c0.2 1.9 1.3 8.2 0.8 9.2h-0.2c-0.7-2.4-2.1-6.5-1.1-8.8zm-557.7 1.2l0.6 0.4c3.7 2.1 9.8 3.1 10.9 4.3-2.5 1.4-9.4 1.4-12.7 3.5 0 0-1.8 0.7-1.9 0.7 3.8 0 7.7 0 11.5-0.2-10.4 2.8-20.3 5.8-30.8 7.7q-9.7 1.7-19.2 3.7c5.8-5 34.2-20.4 41.1-20.1q0.3 0 0.5 0zm565.7 1.8c1.1 1.9 5.5 10.2 5.3 11.8-2.7-2.8-7.3-7.5-5.3-11.8zm-582.1 1.1c-8.8 4.9-20.1 8.7-29.3 13.5-3.9 2.1-12.9 9.4-15.2 10.2 9.2-14.3 28-19.2 43.5-23.5 0.3-0.1 0.8-0.2 1-0.2zm637 30.8c0 2.4 0.4 2.2-0.7 3.9l-1.5 0.7c0-2.4 0.1-3 2.2-4.6zm23.3 2l0.1 2.1c-1.4 0.6-1.6 0.5-3.2 0.7l-0.2-1.8 0.7-0.8zm-5.3 0.2c-2.3 1.4-6.9 4.5-9.2 5.2 3-2.9 4.7-5.3 9.2-5.2zm-30.3 8.9c0.5 2.2 0.9 7.3 0.3 9.4l-0.8 0.1c-0.9-3-1.7-6.8 0.5-9.5zm7.9 4c1.3 3.7 1.7 5.1 0.1 8.9-0.6-3.2-1.8-6.5-0.1-8.9zm10.3 1.5c-0.1 1.8 0 2.3-1.1 3.7-1.2 0.7-1.3 0.9-2.7 1 1-1.9 1.9-3.6 3.8-4.7zm-77.6 1.2l-1.5 1.5c0.2 1.1 0.6 1.9 0.1 2.5-1-0.7-1.2-0.8-2.1-1.7-1.5-0.9-2.2-0.9-2.8-2.2 1.3-0.6 4.6-0.2 6.3-0.1zm15.5 5.5c-4 2.5-5.4 2.5-9.9 2.9 3.3-2.1 6.1-2.4 9.9-2.9zm66.5 0.7l0.7 1c-0.6 1.9-2.3 3.6-3.8 5-0.8-1.6-1.5-2.7-1.2-4.3 1.3-1.3 2.3-1.4 4.3-1.7zm-20.6 0.6c0.8 1.8 1 1.6 0.8 3.2l-0.9 0.9c-0.5-1.4-1-2.3-0.4-3.6zm-241.8 0.1c0.9 2.2 2.2 4.5 1.5 6.8-0.8-2.3-1.9-4.5-1.5-6.8zm216 2.9c-0.2 3.3-0.3 20.1-1.4 21.9q-0.3-0.2-0.6-0.3c-0.4-4.6-1.9-15.2-0.4-19.9 0.1-0.5 1.8-1.4 2.4-1.7zm35.8 0.5c0 2.2 0.4 2.8-0.6 4.5h-1c-0.5-2.3-0.7-1.8 0-3.6zm73.5 2.1c0.1 1.8 0.5 3.5-0.9 4.8-0.1-1.7-0.3-3 0.5-4.4zm-62.1 0.4c1 2 1.7 2.3 1.6 4.2-0.7 0.7-1.1 1.1-1.8 1.8-1.1-2.4-1.6-2.3-1.3-4.5zm-59.8 3.1c-1.7 6.8-1.3 13.1-0.8 20.1 0.2 3.9 1.4 7.5 1.5 11.3h-0.8l-1-2.3c-1.5-7.5-4.3-20.1-4.8-27.3zm41.6 0.2c0.4 2 0.7 3.4 1.3 5.4 0.9 3 4.2 7 3.1 9.8l-0.9 0.5c-1.3-2.9-5.5-11.7-4.8-14.6zm-11.3 0.3c0.5 1.5 1.2 2.9 0.9 4.4l-0.5 0.4c-0.5-1.7-1-2.7-0.8-4.5zm21.1 2.7c0.8 1.7 2 3.4 1.8 5.2l-1.3 1.3c-0.9-1.9-1.9-3.5-1.7-5.5 0.5-0.5 0.6-0.7 1.2-1zm14.3 2.1l1.1 1.7c-0.6 1.7-1.2 1.5-3.4 2.6-0.7-2.2-0.8-1.2-0.2-3.1 1.3-0.8 1-0.8 2.5-1.2zm8.3 5.3l0.4 1.2c-1.5 1.7-6.2 4.1-8.2 4.5-1.2-2.4-1.4-1.9-0.8-3.7 1.9-1.7 6.1-2.3 8.6-2zm-17.6 2.9c2 2.4 4.3 4.6 4.3 7.8l-1.1 1.6c-1.4-2.3-3.2-5.4-3.8-8 0.2-0.6 0.3-1 0.6-1.4zm-22 2.5c1.4 2.3 1.7 2.6 2.2 5.1-0.3 1-0.2 1-0.7 1.9-0.9-2.1-2.1-4.7-1.5-7zm78.3 0.9c-1.7 2-5.6 5.6-8.3 5.7 1.5-2.5 5.5-5.1 8.3-5.7zm-63.7 2.5c1.4 2.4 2.9 4.4 3.2 7.2-0.4 1.4-0.5 1.3-1.5 2.4-1.2-2.5-4.5-7.9-1.7-9.6zm65.2 1.7l1.1 1.2c-0.7 2.2-2.5 3.2-4.5 4.2l-1-1.5c0.6-1.9 2.7-2.8 4.4-3.9zm6.1 4.3l0.7 1.5c-0.7 1.7-1.6 1.9-3.1 2.9l-1.6 1.1c-0.1-2.8 1.5-4.3 4-5.5zm-55.6 0.4c1 1.6 1.9 2.5 2 4.2-0.9 1-0.6 0.8-1.7 1.4-1-1.8-2-2.7-1.9-4.5 0.6-0.5 0.8-0.7 1.6-1.1zm-26.3 0.1c1.5 3 3.8 6.1 3.1 9.2-2.7-1.7-4.2-6.3-3.1-9.2zm103.7 1.2c-0.5 2.7-1.7 4.8-4.2 6.1 0.8-2.3 2-4.9 4.2-6.1zm-37.5 1.2l1.1 1.6c-0.6 2.3-4.1 5.4-6.1 6.6-0.7-1-1.4-1.3-1.2-2.1 0.6-2.2 4.4-4.7 6.2-6.1zm-49.2 2.1c1 2 1.5 2.8 1.5 5-0.7 1.4-0.2 0.9-1.7 1.5l-0.3-0.1c-1.1-2-2-2.8-1.8-4.7 0.9-0.7 1.3-1.1 2.3-1.7zm71.8 0.5c1.7 1.8 1.8 1.3 1.8 3.1-1.2 2-4.2 3.8-6.3 4.3-1.4-1.3-1.9-1.4-2.4-2.9 6.3-1.8 3.8-3.2 6.9-4.5zm19.9 1.5c0.6 3.1-0.8 6.1-3.9 7.1-0.3-2.4 1.7-6.4 3.9-7.1zm-121.6 3c0.8 2.3 2.3 6.6 1.5 8.7-0.7-2.3-2.2-6.5-1.5-8.7zm84.6 0.4l0.7 1.6c-0.9 2.4-1.5 3.1-3.9 4.2l-1.1-0.2-0.9-1.4c0.8-2 3.3-3.6 5.2-4.2zm-66.3 1.5c1.1 1.7 4.9 7 1.2 7.9-1.1-2.1-2.5-4-2.6-6.4 0.6-1.1 0.3-0.8 1.4-1.5zm91.1 0.7c-1.2 2.9-2.3 4.5-4.8 6.4l-1.7-0.1c0.4-2 4.6-5.9 6.5-6.3zm-41 0.4l1.2 1.5c-0.5 2.4-3.7 5.2-5.7 6.8-0.6-1-1.3-1.6-1.1-2.5 0.6-2.2 3.8-4.3 5.6-5.8zm-32.8 2c1 1.8 2.6 4.4 2.6 6.3-1.1 0.3-0.6 0.3-1.6 0.2-1.3-1.5-2.4-2.5-2.7-4.5 0.5-1.3 0.5-1.2 1.7-2zm55.5 1c1.2 3.3-0.9 5.7-4.2 6l-0.5-1.4c0.9-1.6 3.1-3.7 4.7-4.6zm-17.1 3.2c0.6 0.6 1.7 1.4 1.9 2.2 0.3 1.8-3.2 5-4.7 5.7-0.6-0.6-2-1.4-2-2.2 0-2.1 3.2-4.5 4.8-5.7zm-92.7 1.9c1.4 2.5 2.9 6 3.2 8.9l-0.5 0.5c-0.7-1.8-3-7.1-3.1-8.8zm40.3 1.4c4.7 1.4 6.2 3.6 4.7 8.5-1.7-1.3-4.5-6.3-4.7-8.5zm76.9 0.5c-0.3 2.5-1.8 3.8-4.2 4.2 0.4-2.4 1.4-4.1 4.2-4.2zm-17 1.9c1.9 4.4-1.7 6-5.5 6 0.2-1.6 4.1-5.2 5.5-6zm-107.6 1.1c1.3 1.9 2 2.8 1.5 5.3-0.9-1.8-1.9-3.3-1.5-5.3zm114.9 4.6c-1.4 1.6-3.3 3.7-5.5 4.2 1.7-2.6 2.4-3.7 5.5-4.2zm-16.7 2.7l0.6 1.9c-0.7 1.2-0.3 0.8-2.2 1.2q-1.1 0.3-2.1 0.5c0.1-2.2 1.9-2.8 3.7-3.6zm-40.3 0.5c0.4 2.1 0.9 2.7 0.2 4.4-1.1 0.5-1.1 0.4-2.3 0.3-0.7-1.8-1.3-2.4-1.1-3.9 1.4-0.7 1.7-0.6 3.2-0.8zm-54.8 0.1c1.8 2.3 2.3 2.9 1.5 5.7-1.1-2.1-2.2-3.5-1.5-5.7zm122 1.3l0.2 0.9c-1.4 1.7-4.7 4.9-6.9 5.2l-0.9-1.8c1.1-2.8 4.7-4.2 7.6-4.3zm-89.1-0.3c1 2 2 3.4 2.1 5.5-0.7 0.8-0.3 0.6-1 0.8-1-1.8-2-3.3-2-5.3zm91.8 3.4c0.6 3.6-0.6 4.2-3.7 6 0.3-2.4 1-5.2 3.7-6zm-120.2 5.1c0.9 1.5 1.6 2.2 1.1 4.1-0.9-1.6-1.8-2.4-1.1-4.1zm-31.8 1.6c1.2 2 2.3 3.4 2.6 5.6l-0.5 0.6c-1.1-1.8-2.2-3.5-2.5-5.5zm-23.4 2.4c2.3 3.9 2.9 6.7 4.7 10.9 1.8 4.3 4.6 8.3 7.2 12.2l-0.3 0.6c-4.2-5.5-11.7-15.5-12.4-22.6 0.3-0.5 0.4-0.8 0.8-1.1zm141.5 1.1c1.8 1.5 2 1.2 2.5 3.1l-0.7 1.3c-1.3-0.9-2-1.2-2.5-2.6 0.3-1.2 0-0.9 0.7-1.8zm-165.4 0.4c0.8 1.8 1.8 3.6 2.1 5.4l-0.5 0.3c-0.8-1.7-2-3.5-2.1-5.3zm115.1 1.9c1.2 1.8 1.6 2.2 2.1 4.3q-0.3 0.3-0.6 0.7c-0.8-1.4-2-3-2-4.5zm-78.6 3.6c1.5 1.7 5.3 5.4 5.4 7.4l-0.7 1.1c-1.8-2.4-4-5-5.2-7.7zm16.3 1.6c3.2 3 4.4 4.4 6.1 8.4l-0.2 0.9c-2.4-2.2-5.4-6-5.9-9.3zm34.5 3c1 1.9 2 3.8 3 5.6-1.1 4.8-2.1 13.7-4.2 17.3l-0.8 0.1c-1.1-1.6-0.7-4.1-0.6-6.2-0.8-9.9-3.2-8.7-4.7-17.7 1.4 3.1 2.1 5.5 6.1 4.7 1-1.4 1.3-2 1.2-3.8zm35.1 3.4c1.9 2.1 4.3 5.6 5.3 8.3l-0.1 0.3c-2-2.4-3.9-4.6-5.3-7.4zm-47.7 6.4c0.7 2.1 0.3 2.3 1.7 3.5 1.7-0.1 2.6-1 4-2-0.5 4.3-1.2 10.8-2.8 14.7-1.3 2.9-4.6 5.5-5.2 9.1-0.1 1.2-0.7 3.3-1.5 4.3-0.5-1.9-0.4-3.5-0.5-5.5l-0.3-2-0.6-0.3c-1.4 1.4-1.9 2.6-2.8 4.4 0.6-3.3 2.1-14 3.9-15.7 0.7 1.1 0.7 1.9 0.9 3.2l0.6 0.4c1.5-1.3 2.1-4.4 2.6-6.3-0.8-2-1.7-3.5-1.5-5.6 0.7-1.4 0.4-1.2 1.5-2.2zm-112.4 8.5c1.1 2.9 6.4 15.9 5.8 18-1.8-3-6.1-14.7-5.8-18zm90.6 1.5c1.2 3.1 1.7 4.1 2.1 7.4l-0.5 0.6c-1-2.5-2-4.2-2.2-6.8zm123 5.6c-2.6 1.4-10.3 5.8-12.6 6.1 3.9-3 7.5-6.3 12.6-6.1zm-175.8 28.1c0.7 1.7 1.4 2.8 1.3 4.7-1.1-0.7-1.3-1.7-2-3.1-1.2-0.9-1.6-1.4-3-1.8l-1.1 0.9c1.1 3.6 1.5 4.6 1.7 8.4l-0.4 0.1c-1.5-3.2-2.2-4.5-1.9-7.9q-0.4-7.6-1-15.1c3.1 4.5 4.4 8.6 6.4 13.8zm102.9-24.8c-0.3 3.2-1.7 7-3 9.9 0.2-3.2-0.1-7.2 2-9.5zm34.5 0.5c-1.3 2.3-3.9 7.2-5.7 8.9 2.4-5.4 0-8.5 5.7-8.9zm-16.2-0.1c-0.9 2.7-4.1 12.3-6.1 13.5 0.6-3.3 2.7-12.5 6.1-13.5zm-10.2 0.1c0.1 2.5 0.2 14.4-0.2 16.1-0.3 0.8-0.4 1.6-0.5 2.4-3.9 1.3-5.4 1.8-9 3.7l-0.7-0.5c-0.1-2 2.6-5.1 4-6.7 2.3-2.4 4.8-13.6 6.4-15zm35.9 1.5c-1.1 1.4-2.9 4.2-4.4 4.6 0.3-2.4 0-2.1 1.2-3.8 1.5-0.7 1.5-0.6 3.2-0.8zm-84.2 1c0.6 1.9 1.2 3.9 2 5.6-0.5 1.7-1.3 5-2.1 6.5-0.4-2.5-0.7-9.9-0.9-10.5 0.4-0.8 0.4-1 1-1.6zm33.5 2.5c0.2 2.3 0 15.6-0.3 18.5-0.1 0.5-2.7 1.6-3.7 1.9-1.5-4 0.8-18.1 4-20.4zm-58.6 2.2c0.4 1.3 2.7 16.4 2.5 17.2l-0.5 0.6c-1.3-6.5-2.3-10.7-2.4-17.4zm-585.7 0.4c-2 3.8-10.4 19.3-13.4 21 1-4.2 9.7-18.8 13.4-21zm686.9 0.4c-0.6 2.5-0.9 3.6-2 5.9-1.4 0.2-6.5 1.1-7.5 1.2 1.1-2.8 6.7-5.5 9.5-7.1zm-134.7 2.3c1.1 2.2 1.9 3.4 2.1 5.9l-0.6 0.8c-0.7-2-1.8-4.3-1.8-6.3zm-53 12.4c0.8 1.4 1.9 2.7 1.3 4.4-1-1.8-1.6-2.4-1.3-4.4zm-515.5 8.7c0.5 1.3 1.2 3.1 1.8 4.3-0.9 2.2-3.4 8.8-4.9 9.9-1.6-2.6-2.1-2.6-1.2-5.9 0.6-1.8 3.3-6.9 4.3-8.3zm627.3 1.3c0.4 5.8 0 11.3 0.2 16.9l-3.6 5.3c-0.1-4.3 0.9-18.8 3.4-22.2zm-98.7 0.4c1.8 4.8 8.9 19.2 7.9 23.3-2.4-4.4-9.3-18.4-7.9-23.3zm33.1 2c1.6 4.2 4 13 2.4 17.4-0.6-2.9-3.2-15.4-2.4-17.4zm-213.6 4c1.7 4.5 7.7 24.9 7.5 28.8-2.1-5-9-24.1-7.5-28.8zm176.5 1.5c0.7 1.6 2 4.1 2 5.8l-0.3 0.1c-1-1.7-2.2-3.4-2.3-5.3zm-505.1 9.1c-0.5 4-3.8 11.1-6.4 14.3-2.2 2.8-3.3 0-5.6 5.4 0.2 1.3 0.3 2 0.6 3.3-1.4 2.6-3.3 5.3-4.4 7.9-0.6-0.3-0.4-0.1-0.7-0.5-0.9-1-2.8-2.5-2.3-3.4 3.9-6.7 13-22.9 18.8-27zm-46.3 2.4c2.1 5.5 7.4 18.9 8.4 24 2.3 13.4-0.1 35.8-3 49.1-1.2 5.5-5.7 17.6-7.8 23l-2.2 6.2c2-19.3 0-34.9-1.1-54.1-0.5-7.2 3.8-17.7 3.6-25.2 0.2-4.2 1.1-19.8 2.1-23zm564.2 5.8c1.3 2.2 2.4 3.6 2.9 6.1l-0.3 1c-0.9-1.9-2.5-5-2.6-7.1zm-20.8 5.3c0.6 1.6 1.3 3.5 1 5.3-1.2-2.3-1.6-2.8-1-5.3zm-179.1 3c2.6 5.4 5.5 11.3 8 16.8 1.8 3.8 10.8 16.9 9.8 20.3-2.9-5.3-18.5-32.7-17.8-37.1zm187.2 4.9c0.9 2.7 1.5 3.9 0.5 6.5-0.5-2.2-1.2-4.3-0.5-6.5zm-529 0.7l1.8 4.9c-2.3 2.6-4.6 6.3-6.7 8.5-2.5-5.1 0.9-10.1 4.9-13.4zm2.8 9.3c1.3 1.8 4.8 6 4.9 7.6-1.4 0.7-1.4 0.3-3.4-0.3-2-0.4-2.1-0.4-3.7-1.7-1-2.7 0.2-3.7 2.2-5.6zm313 2.1c1.9 2.1 11.1 17.1 11.1 19.1-2.1-3-11.3-16.2-11.1-19.1zm219.3 6.4c1 2-0.2 13.2-0.6 15.9-2.3 2.4-2.4 2.5-3.8 5.4 0-4.8 2.4-16.5 3.5-21.3zm-392.4 5.4l-0.2 1.5c-1.6 0.2-1.6-0.1-3.2-0.7l-0.4-0.7c1.4-0.5 2.3-0.3 3.8-0.1zm189 0.8c1.7 1.2 7.1 5.6 4.8 8.1l-5.1-7.4zm-214.7 8.3c6.2 1.2 7.3 2.2 13 4.7 0.8 0.4 4.9 1.1 6.3 1.5l2-1.9 0.7 0.2c-0.3 2.3-0.7 3.5-1.4 5.7l-0.4 1.4c-0.4-0.1-17.7-10.1-20.5-11.3v-0.3zm388.5 9.2c2.4 7.1-2 17-4.5 23.9-2.5 7.3-6.9 26.9-13.5 31-0.3-1.5 3.4-10 4.1-12.5 3.1-10.6 6-20.9 10.7-31 1.3-2.6 1.7-9.7 3.2-11.4zm-433.2 33.1c11.6 8.4 22.1 15.8 35.1 22 3.8 1.8 7.9 4.6 11.7 6.7l-3 7.6-0.6 0.9c-5.4-1.4-32.1-26.7-37.8-30.8-1.7-1.3-5.3-4.1-5.4-6.4zm417.3 7.8c-0.1 1.8 0 4.2-1.4 5.3 0-2.2-0.2-2.8 0.7-4.8zm-412.9 5.8c10.8 9.2 25.9 20.3 38.2 27.5-0.5 2.5-1.2 5.6-1.6 8.2-3.4-0.7-36.3-32.1-36.6-35.7zm402.6 2.8c-0.6 1.8-0.5 2.7-1.7 3.6l-0.2-0.1c0.2-1.7 0.5-2.3 1.9-3.5zm-400.4 11c9.7 8.2 27 18.8 34.1 26.2-0.3 1.4-1 8-1.2 8.7-4.4-3.8-31.6-29.1-33.8-33v-1.2zm-1.9 13.6c5.6 4.2 11.1 8.3 16.8 12.4 5.3 3.9 14.3 8.6 18.4 13.2 0.3 2 1.1 6.6 0.7 8.3l-0.6-0.1c-4.8-3.6-9.8-9.3-14.1-13.6-3.8-3.8-21.7-15.5-21.8-19.7zm423.7 0.9l0.1 0.4c1.2 3.8 3 8 4.5 11.7l-0.4 0.4h-0.3c-1.4-2.9-5-9.5-4.6-12.1zm-72.7 6.2c-3 1.2-4.8 2.4-8 3 1.9-2.5 5.1-2.7 8-3zm64.5 0.9c0.4 6.2 1.9 10.8 3.9 16.7 0.7 2 1.7 3.7 1.3 5.7l-0.3 0.3c-2.9-7.4-7.3-13.3-5.6-22zm7.2 63.9l1.5 1c-0.8 0.9-1.5 0.7-3.1 1l-1.2-1 0.2-0.6c1.2-0.3 1.4-0.4 2.6-0.4zm-84.7 33c1 1.4 1.6 2.4 1.5 4.1-0.2 2.1 1.7 4.5 2 6.1-2.4-2.6-6.5-6.5-3.5-10.2zm-299.8 19.1c2.9 2.7 10.6 9 11.7 12.1l-0.1 0.9c-4.5-2.9-11.9-7.1-11.6-13zm295.5 6c0.9 3-0.8 6-2 9-0.2-3.8 0.5-5.6 2-9zm86.2 0.3c0 2.7 0.5 2.8-0.8 4.6-0.9 0.3-1.8 0.5-2.7 0.8-0.1-1.8-0.3-2.6 0.4-4.2 1.6-1.4 0.6-0.9 3.1-1.2zm0.4 7.8c0 1.9 0.3 3.4-0.7 5-1.2 0.7-1.7 0.7-3.3 0.4-0.1-2.1-0.5-3.1 0.3-4.9 1.3-0.6 2.2-0.5 3.7-0.5zm-332.5 5.8c5.4 1.4 7.2 3.5 10.6 8 1.8 2.4 4.1 6.3 3.4 9.3-0.9 1.1-0.4 0.8-1.6 1.1-1.2-0.5-2-0.7-2.9-1.7-3.9-3.1-6-6.1-8-10.7q-0.9 0.1-1.8 0.2c-2.3-3.1-2.7-3.7-5.6-6.2 1.8 0 4-0.2 5.9 0zm334 1.8c0.5 2.8 0.8 2.2-0.1 4.5-1.5 1.5-2.8 1.7-4.8 2.4-0.3-2-0.4-1.9 0.1-3.8 1.5-1.8 2.5-2.2 4.8-3.1zm-478.7 4.2c2.1 3.8 5.3 9.9 5.2 14.3l-1.3 1.7c1 2.4 1.8 2.8 1.5 5l-0.8 0.7-0.4-0.3-0.1-1.4c-0.2 0-1 0-1.2 0.1-2.4-6-6.4-12-9.9-17.5 2.5-1.1 4.3-1.9 7-2.6zm480.3 2.4c0.8 2.3 0.8 1.3 0.2 3.3l-2.9 2.6c-0.2-1.8 0-2.8 1.2-4.4q0.7-0.8 1.5-1.5zm-319.4 9.4c-0.5 3.4-2.6 1-1.3 3h1.5l0.2 0.5-1.5 0.9 0.6 1.2c-1.4 0.3-4-0.2-5.6-0.3-1.7-0.2-1.1 0.2-2-0.8h-0.4c1.3-0.3 3.8-0.7 4.6-1.6l-0.5-0.3c-0.5-0.5-0.8-0.8-1.2-1.2 1.7-0.7 3.7-1.2 5.6-1.4z"/>
		<filter id="f0">
			<feFlood flood-color="#ffffff" flood-opacity="1" />
			<feBlend mode="normal" in2="SourceGraphic"/>
			<feComposite in2="SourceAlpha" operator="in" />
		</filter>
		<g id="Folder 1" style="opacity: .3" filter="url(#f0)">
			<path class="s1" d="m578.4 198.2c-10.1 3.7-22.7 37.7-25 48.6 1.6-2.3 10-20.5 11.8-24.6 3.9-8.8 9.3-16.3 13.2-24z"/>
			<path class="s1" d="m696.7 211l-0.7-0.3c-2.6 0.2-2.7-0.1-3.4 2.9l0.7 0.5c1.5-0.7 2.3-1.8 3.4-3.1z"/>
			<path class="s1" d="m605.3 269.3c3.1-1.7 9.5-18.1 11.4-22.6 4.1-10.2 9.5-21 12.7-31.5-5.3 4.8-21.1 45.2-24.1 54.1z"/>
			<path class="s1" d="m712.5 283.7q3-11.4 6.8-22.7c2.1-5.9 7.1-19.6 7.7-25.1-4.3 1.2-16.2 42.4-15.7 48.4z"/>
			<path class="s2" d="m403.8 287.1q0.2-0.1 0.4-0.1c11.5-7 41.7-22.6 48.7-32.2-5.9 0.4-43.5 26.6-49.1 32.3z"/>
			<path class="s1" d="m385.5 284.1c4-0.6 46.3-25.3 51-29.2-9.5 2.1-43.3 22.9-51 29.2z"/>
			<path class="s1" d="m895.2 273.3c-1.1-3.8-6.1-12.4-9.4-14.7 1 4.4 5.6 12.4 9.4 14.7z"/>
			<path class="s2" d="m884.6 276.6c-2.3-3.9-5.3-10.8-8.5-13.3l-0.6 0.2c-0.1 2.5 5.9 10 8.1 15.5z"/>
			<path class="s1" d="m915.7 317.4c-0.4-3.5-0.7-12.5-2.4-14.8-2.1 0.9-2.3 9-2.5 11.3-1-4.2-1.9-8.2-3.3-12.2l3.6-8.7c-3.5-10.8-2.6-16.4-12.9-24.5 7.3 14.8 12.3 12.8 7.5 29.3-1.5 5 2.4 23.3 5.4 28.4l2.5-4.8c0.4-1.7 1.4-2.1 2.1-4z"/>
			<path class="s3" d="m884.6 276.6l-1 2.4c0.4 1 1.4 4.2 2 4.9 0.8 1.4 0.8 1.7 0.9 3.3 1.1 0.9 0.5 0.5 2 0.8 1-0.2 0.7-0.1 1.6-0.6 0.8-4.1-2.9-7.9-5.5-10.8z"/>
			<path class="s2" d="m899.8 292.3c3.2-4.5 2.8-7-0.7-11.1l-0.6 0.4c-1.1 2.8 1.1 6.5 1.3 10.7z"/>
			<path class="s3" d="m882.8 294.6c3-3.3-3.9-10.4-6.1-12.7l-0.5 0.4c0 3 4.6 9.9 6.6 12.3z"/>
			<path class="s1" d="m121.6 282.9l-0.6-0.4-1.3 0.4c-2.4 2.9-6.3 5.3-8.9 8.1-3.8 4.2-6.6 8.8-9.8 13.5-5.6 9.9-9.2 17.5-12.7 28.5 0 1.6-0.2 2 0.5 3.4 3.5-11.6 8.3-22.2 15.9-31.6 3-3.8 5.5-8.1 9-11.7 1.2-1.8 2.8-3.8 4.1-5.6l3.6-4.2z"/>
			<path class="s1" d="m898 300.7l1.1 1.3c0.1-4-0.6-14.2-3.3-16.9l-0.7 0.2c-0.6 2.7 2.3 10.6 2.8 14.6z"/>
			<path class="s4" d="m545 304.4c0-3.1 0.2-5.8-0.5-9l-0.4 0.2c-0.8 4.3-0.7 7.1-1.1 11.5 0.6 0.5 0.2 0.3 1 0.6 0.2-1.4 0.3-1.9 1-3.3z"/>
			<path class="s1" d="m548.2 321.6c-1.4-5.6-2.1-11.4-3.2-17.2-0.7 1.4-0.8 1.9-1 3.3-0.8-0.3-0.4-0.1-1-0.6 0.4 4.7 0.7 9.8 1.4 14.6 1.4-0.4 0.7-0.4 2.1 0l-0.4 1.6 0.8-0.3h-0.3l0.9-0.3q0.3-0.5 0.7-1.1z"/>
			<path class="s1" d="m893 345.1c2.3-7.4 13.3-27.6 8.5-35.5l-1.4-0.2-0.8 0.4c1.4 12.4-6.7 24.7-8 34.7z"/>
			<path class="s1" d="m100.4 342c1.2 0.1 1.2 0.1 2.3-0.2 1-1.3 3.1-4.9 3.6-6.3 2.6-6.7 12.6-20 13.4-26-8.9 5.5-17.8 22.3-19.3 32.5z"/>
			<path class="s1" d="m90.6 399.2q0.2-0.1 0.4-0.2c11.9-15.6 23.8-31.6 34.3-48.4 5.3-8.7 9.8-17.9 15.2-26.6 2.3-3.7 9.3-8.1 9.9-12.1-10.4 0.3-24.6 26.6-29.6 35.1-8.7 14.8-25.4 36.2-30.2 52.2z"/>
			<path class="s1" d="m94.1 366.9c6.6-4.2 31.6-46.9 34.4-54.9-12.3 0.7-21.7 28.2-26.4 37.8-3 6.3-6.4 10.1-8 17.1z"/>
			<path class="s2" d="m130.3 320.1c1.2 0.8 2.1 1.4 3 2.6 1.1-2.1 2.8-4.4 2.4-6.7l-0.8-0.3c-2 0.9-3.1 2.6-4.6 4.4z"/>
			<path class="s2" d="m328.9 365.6l0.8-0.1c0.4-0.4 4.1-9.3 5.2-11.3q6.4-12.4 13.5-24.5c1.4-2.3 6.6-9.7 6.9-11.7-3.7 1.9-8.9 8-11.5 11.3-7.4 9.7-16.4 23.5-14.9 36.3z"/>
			<path class="s1" d="m904.2 343c4.4-11.5 3.1-13.5-0.4-24.6-2.4 2.6 0.8 14.2 0.4 18.1-0.2 2.2-1 4.4-1 6z"/>
			<path class="s1" d="m139.7 333c4.2-1 18.5-11.4 22.4-14.5-7.4-0.4-20.7 6.8-22.4 14.5z"/>
			<path class="s1" d="m133.3 322.7c-0.9-1.2-1.8-1.8-3-2.6-11.7 14.2-18.3 27.4-26.9 43.3-2.4 4.5-7.3 9.5-8.7 14.2 5.9 1.7 35.4-47.8 38.6-54.9z"/>
			<path class="s2" d="m193.9 338c3.7-1.7 15.6-9.9 18.7-13.5 0.5-0.5 0.1-1.2-0.1-2.1-5.3 0.9-18.8 10.2-18.6 15.6z"/>
			<path class="s1" d="m552.7 399.8h0.9c0.5-1.7-6.4-30.6-7.3-35.1-2.6-14-4.7-27.9-6.7-42-3.2 2.4-2.1 11.4-1.8 15.1 1.6 21.1 6.2 42.7 14.9 62z"/>
			<path class="s1" d="m293.1 381.2c4-3 15.9-31.7 19.7-37.7 2.8-4.4 8.5-10 9.7-14.6-2.6 1.4-13.3 16.4-15 19.6-4.8 9.6-11.9 22.4-14.4 32.7z"/>
			<path class="s2" d="m154.2 334.9c-0.8-1.4-0.9-2.1-1.4-3.7-4 3.1-4.1 4.1-6 8.6z"/>
			<path class="s2" d="m278.2 370.1c5-2.3 29.4-32.2 30.5-36.7-0.9 0.6-0.6 0.3-1.2 1-8.6 9.2-24.8 23.9-29.3 35.7z"/>
			<path class="s2" d="m151.1 342.3c3.6-0.3 9.8-3.1 12.3-5.6 1.3-1.3 0.9-1.8 0.8-3.5-4.2 0.6-12 4.7-13.1 9.1z"/>
			<path class="s1" d="m163.2 345.3c4.6-1 10-3.1 10.6-8.4-3.2 0.7-9.6 5-10.6 8.4z"/>
			<path class="s1" d="m304.1 385c1.6-0.8 3.8-5.1 4.3-6.7 2.1-7.9 16.1-31.3 16.1-37.4-5.2 9.1-19.5 34.7-20.4 44.1z"/>
			<path class="s3" d="m292.3 341.8c-7.8 7.5-15 15.8-20.2 25.4 13-10.2 12.2-12.8 21.2-24.4z"/>
			<path class="s2" d="m131.5 347.5c1.9 0.3 1.3 0.2 2.9 1.6 1.5-1.7 3.8-3.8 3.3-6.1l-1.1-0.1c-2.2 1-3.4 2.7-5.1 4.6z"/>
			<path class="s2" d="m169.8 352.9c4.2-3 10.9-3.9 11.6-9.6-4 0.4-10.8 5.2-11.6 9.6z"/>
			<path class="s2" d="m239.9 409.6c1.7-0.3 2.5-0.3 4-1.2 3.8-4.8 9.7-28.7 12.5-36.1 2-5.2 11.4-24.9 11.6-28.6l-2 0.3c-1.9 1.5-4.2 5.8-5.4 8-5 9.1-9.1 18.8-12.3 28.8-1.4 4.6-2.5 9.3-3.9 13.9-1.3 4.5-3.9 10.4-4.5 14.8z"/>
			<path class="s1" d="m520.6 385.3l0.6 0.4c2.4-2.6-1.8-32.6-1.5-38.4-6.6 4.5-2.5 30.9 0.9 38z"/>
			<path class="s1" d="m134.4 349.1c-1.6-1.4-1-1.3-2.9-1.6-3.8 4.3-6.4 8.5-9.8 13-9.6 13.2-17.3 26.6-24.4 41.3-2.5 5.2-5.7 10.8-7.6 16.2 8.6-7.6 21.7-29.3 28-39.2 3.3-5.2 7.8-10.9 11-16 0.9-1.1 0.9-1.2 1.5-2.5l-0.5-0.3-2.2 0.9-0.2-0.9c1.8-4.8 3.9-6.9 7.1-10.9z"/>
			<path class="s2" d="m287 369.2c5.2-1.9 15-14.2 17.1-19.3-4.8 1.6-14.7 14.6-17.1 19.3z"/>
			<path class="s2" d="m457.6 436.8c-3.6-15.5-4.9-31.4-3.9-47.3 0.3-5.1 2.7-33.9 1.8-37.6l-0.6 0.5c-5.2 13.5-5.6 33.9-5.4 48.1l-0.1 13.6c0.6 9.2 4.3 36.7 9.9 42.9l0.7-0.3c0.8-2.2 0.5-3.9 0.3-6.3-0.5-3.9-1.9-9.4-2.7-13.6z"/>
			<path class="s1" d="m175.3 361.4c3.1-1 9.6-5.1 7.8-9-2.4 1.5-8.1 6-7.8 9z"/>
			<path class="s3" d="m181 365.1c4.6 1.1 9.6-6.5 11-10.2-4.1 1.2-9.3 6.3-11 10.2z"/>
			<path class="s2" d="m181.7 380.7c5.9-2.8 18.3-13.4 21.7-19.4-8.1 0.1-18.3 12.6-21.7 19.4z"/>
			<path class="s2" d="m332.2 431.3l0.8-0.6c2-4 3.3-15.1 4.1-19.9q2-11.9 4.3-23.7c0.9-4.9 5.3-19.5 4.3-23.3-0.4 0.3-0.9 0.6-1.1 1-9.6 18.3-14.2 46.5-12.4 66.5z"/>
			<path class="s2" d="m322.9 417.3c0.3-0.2 0.8-0.8 1.1-1.1 2-6.5 3.7-14 5.2-20.7 2-8.5 7.5-22.1 6.3-30.3-6.7 2.7-14 43.9-12.6 52.1z"/>
			<path class="s1" d="m176.9 407c13.6-7.7 31.7-26.1 38.4-40.1-5.6 2-35.7 33.8-38.4 40.1z"/>
			<path class="s4" d="m320.2 368.1l-0.9-0.9c-1.8 5-8.4 22.1-7.9 26 2.9-2.1 7.7-20.8 8.8-25.1z"/>
			<path class="s1" d="m92.4 436.2c2.7-1.2 6.5-8.9 8.2-11.9q12.2-21.5 25.4-42.4c2.8-4.4 7.1-9.4 9.2-13.6-3.9 1.8-6.7 6.6-9.7 9.5-17.3 16.1-26.4 35.9-33.1 58.4z"/>
			<path class="s2" d="m188 386.3c4.7-1.2 13.9-12.3 14.8-16.8-5.5 2.6-11.9 11.6-14.8 16.8z"/>
			<path class="s1" d="m208.4 417.3c7-2.1 27.5-28.3 30.9-35-0.6 0.1-1.3 0.2-1.8 0.5-1 0.5-24.7 27.2-26.7 29.9-1.1 1.4-1.8 2.9-2.4 4.6z"/>
			<path class="s1" d="m183.9 415.9c7.2-0.2 30.8-26.2 33.1-33.6-6.3 2.4-30.4 27.6-33.1 33.6z"/>
			<path class="s1" d="m187.5 425c10.5-4.3 36.8-31.9 41.6-41.7-7 2.3-38.3 34.4-41.6 41.7z"/>
			<path class="s1" d="m343.8 441.6c0.7-0.2 0.4 0 1-0.8-0.3-17.9-0.1-34.6 3.5-52.1 0.2-1.2-0.5-1.9-1.2-2.9-7.5 8.9-6.1 43.9-3.3 55.8z"/>
			<path class="s1" d="m94.9 448.5c-0.6 1.4-0.9 2-0.7 3.5 2.2-0.6 4.2-4.1 5.7-5.8 14.8-17.6 20.9-41.2 35.2-58.9-4.3 1.5-12.7 12.3-16 16.3-0.2-0.9 0-1.9 0.1-2.9h-0.6c-2.5 3.5-3.6 7-5.7 10.7-6.6 12-12.5 24.6-18 37.1z"/>
			<path class="s1" d="m373.2 462.4l0.5 1.1 0.7-0.2c0.8-4.5-0.4-16.6-0.8-21.6q-0.6-9.8-0.7-19.6c-0.1-11.5 1.1-22.9 1.1-34.4-2.2 1.6-2.4 8.5-2.8 11.3-3.4 21.4-1.9 42.1 2 63.4z"/>
			<path class="s1" d="m399.5 437.4l0.5 0.5c1.1-2 0.6-22.2 0.7-26.2 0-7.8 1-14.8 1.5-22.5l-0.9 0.7c-3.9 11.4-3.3 35.3-1.8 47.5z"/>
			<path class="s1" d="m266.7 506.5c-0.5-0.5-1.4-1.3-1.8-2-8.6-13.3-11.5-26.6-14.3-41.6-2.7-14.4-3.8-21.2-1.2-35.9 1.3-7 10.5-33.2 7.3-37.4-3.4 0.7-5.4 12.4-6.6 15.9-9.3 26.8-12.7 46.6-7 74.9 0.3 1.5 0.5 1.6 0.3 3.2 0.6 4.1 6.2 21.2 8.3 23.7l1.1 0.5c1.7-1.4 0.9-1.1 1.6-3.2 0.9 0.4 4.7 2.1 5.4 2.7 2.3 1.9 3.5 5.3 6.8 5.9 1.2-0.6 0.8-0.1 1.3-1.3-0.4-0.6-1.2-1.7-1.2-2.2-0.2-1.1 0-2.1 0-3.2zm-19.1-23.6c1.6 3.1 10.7 19.6 10.8 20.7l-0.4 0.2-0.4-0.1c-1.7-0.4-2-0.5-3.7-0.5-1.1-3.2-6.4-18.2-6.3-20.3z"/>
			<path class="s1" d="m932.8 403.7c0.9-12.3-22.4-18-22.3-3.1 0 2.8 1.1 5.5 3.1 7.4 4.6 4.4 12.8 3.1 17.3-0.8 0.7-1.2 1.3-2.3 1.9-3.5z"/>
			<path class="s1" d="m500.8 541.1c0.2-1.3-0.1-3.7-0.4-5.1-4.9-20.2-9.4-40.4-12.7-61-0.3-1.6-0.8-3.1-1.7-4.4-1-0.1-1-0.1-1.9 0.3-3-4-11.7-54.7-12.5-61.3q-1.1-8.4-1-16.9c-0.6 0.4-0.8 0.7-1.3 1.2-5.7 21.9 8.4 76.1 14.7 98.4 1.3 4.5 5 14.2 6.7 19.5 2.8 9 6.3 21 10.1 29.3z"/>
			<path class="s1" d="m380.6 395.9c1 1.8 1 2.2 1.4 4.3 0-2.9 0.3-4-0.6-6.8l-0.6 0.4z"/>
			<path class="s5" d="m365.4 424.5c0.2-5.9 2.5-26.2 0.1-29.8l-0.7 0.2c-3.7 8.1-2.8 41-0.5 50 1.2-2 0.5-15.8 1.1-20.4z"/>
			<path class="s6" d="m382 400.2c-0.4-2.1-0.4-2.5-1.4-4.3-4.1 21.8-3 56.2 4.4 77-0.4-19.9-3.3-40-3.2-60q0.1-6.3 0.2-12.7z"/>
			<path class="s1" d="m502.3 520.1l0.3 0.1 0.6-0.7c1.1-8.6-3.1-22-4.9-30.8q-7.2-37.2-15.8-74.1c-1-4.5-1.8-13.7-3.2-17.2-8.3 7.1 18.9 109.8 23 122.7z"/>
			<path class="s1" d="m272.2 511.3l0.1 1.4c2 1.7 7.1 8.5 10 7.8 0-2.7-2.7-7.4-4-9.7-13-23.3-24.5-52-18.4-79 1.7-7.8 2.4-16.4 4-24.3 0.5-2.5 1.3-4.7 1.7-7.3l-0.6 0.1c-3.9 3.5-11 24.2-12.7 30.1-5.3 18.9 0.5 43.7 8.9 61.1 3.3 6.8 7.8 12.6 11 19.8z"/>
			<path class="s7" d="m389.7 406c0.4 0.7 1 1.7 1.3 2.4 0.1-2.1 0-2.5-0.3-4.6l-0.5 0.1z"/>
			<path class="s1" d="m351 434.8l0.9-0.4c1.5-2.9 2.9-26.3 2.2-29.6-3.7 3.7-4.4 25-3.1 30z"/>
			<path class="s1" d="m192.8 438.5c9.8-5.2 28.4-24 32.9-33.6-1.4 1-7.5 7.5-8.8 9.1-6.7 8.4-17.6 16.3-24.1 24.5z"/>
			<path class="s1" d="m391 408.4c-0.3-0.7-0.9-1.7-1.3-2.4-2.8 10.5-2 54.8 5.8 61.6l0.6-0.7c-1-9.8-2.7-19.9-3.6-29.8-0.9-9.5-1.2-19.1-1.5-28.7z"/>
			<path class="s1" d="m138 416.5c3.3 0.2 13.1-7 13.7-9.9-4.1-0.4-12.3 6.3-13.7 9.9z"/>
			<path class="s1" d="m509.3 499.3l1.2 0.7 0.5-0.4c0-4-1.9-12.6-2.8-16.6-3.8-18.4-8.1-36.1-8.4-54.9-0.1-5.7-0.7-12.8-1.9-18.2l-0.7 0.7c-1 3.9-1.2 9.5-1.5 13.7-2.4 26.5 3.2 50.6 13.6 75z"/>
			<path class="s1" d="m126.5 411.6l-1.2-0.7c-5.6 3.9-25.9 46-25.5 53.5 5.8 0.2 15.7-27.5 21.6-31.6l1 0.1c1.1 2.2 0.7 2.4-0.7 4.4 2.3-2 3.3-3.9 5.3-6.2-1.2 3.8-2.2 5.6-5.2 8.1-0.8 0-0.8 0.1-1.5-0.2-5.7 7.8-15.7 35.1-16.5 44.5 6.6-7 14.2-26.3 17.1-28.7-0.2 1.2-0.5 2.4-0.7 3.6-0.8 0.4 18.4-28.9 19.8-31.1-1.9 0.9-3.5 1.8-5.3 2.9-2.1 1.2-4.3 4.1-6.5 4.7l-0.4-0.6c0.2-2.4 1-1.7 1.4-3.6-1.4-0.6-1-0.1-1.7-1.2 1-3.1 6.6-9.9 6.1-12.1l-2.1 0.1c-0.6-0.7-1-1.2-1.6-1.8-1.5 0.9-3.2 3.4-4.3 4.9-0.8 3.6-2.5 9.4-7 9.3l-0.5-0.6 0.7-1.5c0.8-3.6 4.2-11.9 7.1-13.7z"/>
			<path class="s1" d="m240.5 482.5c-1.6-4.1-0.6-8.2-1.1-12.1-2.2-15.9-2-30.7 2.3-46.4 0.7-2.4 3.5-10 2.2-11.5-6.3 0.6-9.8 10.8-9.9 16.3-0.4 13.8-1.6 28-0.1 41.8 0.3 3.1 3.3 12.8 2.8 14.8l0.1 2.6c2.3-0.7 3.2-1.7 5.1-3.2z"/>
			<path class="s1" d="m141 423.7c2.6-0.5 14-8.4 15.8-10.8-7.4-0.4-11.9 5.3-15.8 10.8z"/>
			<path class="s1" d="m144.4 430.6c4.8-0.3 15.7-7.9 15.9-13.2-5.6 0.7-14.6 7.7-15.9 13.2z"/>
			<path class="s1" d="m533.3 509.3l0.3 0.4c1.7-2.6-7.9-57.2-8.9-63.9-1.2-7.2-2-20.7-3-28.1-8.6 15.2 5.7 75.3 11.6 91.6z"/>
			<path class="s1" d="m555.3 518.5c1 0.1 0.5 0.2 1.4-0.4 0.2-3.4-1.5-15.6-2-19.4l-4.2-32.5c-1.1-8.2-2.7-35.1-5.1-41.4-1.2 2.9-1.6 10.3-1.7 13.8-0.9 28.9 3.8 52.6 11.6 79.9z"/>
			<path class="s1" d="m543.6 510.6c1.7-4.4-3.2-35.3-4.3-42.1-1.9-12.9-3.2-31.1-6-43.7l-0.7 0.8c-0.8 5 0.2 11-0.1 16.2-1.5 25.5 4.3 44.9 11.1 68.8z"/>
			<path class="s1" d="m521.2 507.8l0.5 0.4c-0.3-4.9-1.1-8.5-1.7-13.2-0.5-4.1-0.3-8.9-1-12.8-3.1-17.7-4.8-40.5-10.6-57.5-0.6 0.6-1.1 1.1-1.3 1.9-1 3.5-0.1 9.9 0.2 13.5 1 15.3 6.8 55.3 13.9 67.7z"/>
			<path class="s1" d="m150.7 440.9c4.5-2.5 10.1-6.3 12.9-10.7 1.1-1.7 0.7-1.8 0.3-3.4-5.6 0.3-13.8 8.7-13.2 14.1z"/>
			<path class="s8" d="m588.2 530.2c5.9-13.1-7.5-82.6-14.5-96.8l-0.7 0.9c0 8.3 3.7 18.6 5 27.1 2.9 18.5 4.9 36.9 8.7 55.2 0.8 4.2 0.1 9.4 1.5 13.6z"/>
			<path class="s1" d="m308.5 473c-3.2-7.4-4-10.3-5.6-18-1.3-6.2-2.4-19.3-5-24.4-1 11.4 0.4 33 5.4 43.2l1.7 1.9c1.7-0.3 2.2-1.2 3.5-2.7z"/>
			<path class="s1" d="m153.4 448.4c4.3 0 13.5-8 13.4-13.1-4 1.3-13.3 8.7-13.4 13.1z"/>
			<path class="s9" d="m567.9 520.8l0.7-0.6c3.2-8.6-8.1-69.8-11.7-81.4l-0.7 1c0.1 19.2 4 63.7 11.7 81z"/>
			<path class="s2" d="m157 456.9c3.9-2.3 11.9-7.3 14.2-11.1l-1.5-2.5c-3.3 2.1-13.3 9.6-12.7 13.6z"/>
			<path class="s1" d="m207.5 460.7c5.8-0.9 12.2-11.4 14.6-16.5-3.6 1.2-13.3 12.8-14.6 16.5z"/>
			<path class="s1" d="m188.2 475.5c12-2.4 23.5-20.2 24.9-31.1-2.8 1.8-20 23.7-23.4 27.6-0.8 0.9-1.2 2.4-1.5 3.5z"/>
			<path class="s1" d="m161.2 465.9c5.7-2.3 14.8-9 14.6-15.6-7.8 1.2-12 8.8-14.6 15.6z"/>
			<path class="s1" d="m578.9 521.8l0.8-0.6c1.2-7.3-5.3-61-9.5-66.5l-0.8 0.5c-0.5 2.3 0.2 10.2 0.3 12.9 0.7 14.7 2.6 40.5 9.2 53.7z"/>
			<path class="s1" d="m164.9 492.2c8.5 1.3 28.3-28.6 30.9-36.5-6.6 4.6-30.1 29.8-30.9 36.5z"/>
			<path class="s1" d="m161.2 480.7q1.8-0.8 3.6-1.7c8.6-4.2 15.3-14.7 18.2-23.4-7.5 1.9-19.8 18.2-21.8 25.1z"/>
			<path class="s1" d="m185.6 493.1c11.9-0.1 27.3-19.1 31.5-29.3-3.8 2.7-29.9 26.7-31.5 29.3z"/>
			<path class="s1" d="m214.6 482.8c5.2-1.7 10.5-10.2 12.7-15-4.9 2.2-10.1 10.7-12.7 15z"/>
			<path class="s1" d="m173.4 500.2c-0.4 1.2-0.7 1.8-0.8 3l0.8-0.2c2-3.1 3.9-3.8 6.3-6.2 4.7-4.8 14.7-15 16.6-21-7 0.2-20.2 17.9-26 23 0.8 1.1 1.5 1 3.1 1.4z"/>
			<path class="s1" d="m203.7 499.1c6.2-4 7.8-6.7 11.9-12.7-7.1 2.3-11.9 5.9-18.2 9.9 1.7-2.1 4.3-5 4.3-7.8-4.6-0.9-26.3 21.8-27.8 26.5l0.4 1c3.8-1.1 10.7-9.3 14.6-11.6 3.2-1.9 5.4-1.7 8.8-2.8 1.7-0.5 3.7-1.7 5.4-2.3z"/>
			<path class="s1" d="m245.4 501.1c1.1-1 0.8-0.4 1.2-1.7-1.8-2-10.4-3.6-13.4-4.3l-0.8 0.2c1.2 1.4 10.7 5 13 5.8z"/>
			<path class="s2" d="m209.4 497.2c-2.5 1.2-3 1.4-5.7 1.9l-0.6 0.2c-10.2 9.2-19.1 16.7-27.2 28 9.6-4.9 26.4-21.8 33.5-30.1z"/>
			<path class="s1" d="m219.1 498.5l-0.4 1c-1.7-0.3-1.7-0.4-3.5 1-11.5 8.6-33.7 28.2-41.1 39.9 13-9.2 26.1-22.8 38.7-32.7 2.6-2 4.8-5.2 7.2-7.4z"/>
			<path class="s1" d="m506.8 565.3c3.7-8.5 2.1-54.5-1-63.5-2.3 9-2.4 55.9 1 63.5z"/>
			<path class="s2" d="m272.2 511.3c-1.7-0.6-4.1-3.4-5.5-4.8 0 1.1-0.2 2.1 0 3.2q2.8 1.4 5.6 3z"/>
			<path class="s2" d="m518.2 590.8c4.5-3.2 9.2-31.7 11.5-38.6 1.1-3.5 4.1-11.6 5.2-15-5.1 5.9-10.4 19.3-15.4 27.4 2.1-13 5.7-31.3 7-43.8-6.6 11.2-7.2 16.5-11.5 27.4 0.4-10.5 0.3-21 1-31.5-5.6 12.2-7.8 51.4-5.5 64.8 3-3.2 4.8-5.4 7.2-9.2-1.8 7.1-2.7 12-4 19.2l0.7 3.4 1.7-4c1-0.6 0.6-0.3 2.1-0.1z"/>
			<path class="s2" d="m163.5 530.2c2.4-0.7 2.5-1.2 3.9-3.4-2.8 0.2-2.8 1.2-3.9 3.4z"/>
			<path class="s2" d="m164.9 529.4c-7.6 5.7-12.9 12.1-18.4 19.9l2.1 1.3c7.3-5.9 13.9-12 16.3-21.2z"/>
			<path class="s2" d="m117.4 537.2c-1.6-0.1-1.5-0.2-2.9 0.7-2.2 4.2 3.2 8.5 4.3 13.2-1.5 0.5-5.6-2-7.4-2.9 1.1 4.4 5.6 8.6 5.6 11.1l-1 0.8c1.6 1.1 5.5 3.8 6.7 5.1 4.6 4.8 9.8 4.9 15.8 7 2.7 0.9 5.9 2.6 9 2.5l0.5-0.6c-2-5.2-12.1-8.1-16.6-10.9-2.6-1.6-3.7-2.7-5.9-4.8-1.2-0.8-2.5-2.2-3.6-3.2l0.4-0.5-0.3-0.2c1.6 0.1 2.7 1.2 4.3 1.9 4.6 1.4 17.7 8.8 21.7 7.6-0.5-4-17.5-12.4-21.2-15.9-3.8-3.7-5.9-7.1-9.4-10.9z"/>
			<path class="s2" d="m153.9 557.7c2.6-1.6 10.9-13.1 12.5-16.4-5.1 1.5-10.7 11.7-12.5 16.4z"/>
			<path class="s1" d="m632.7 571.1c0.3-3.2 1.3-12.6-0.6-15.1-1.4 0.6-2.1 2.5-2.5 3.9-3.9 12.7-5 25.7-9.4 38.3 1.9 2 1.7 1.9 4.2 2.4 2-4.1 3.7-7.3 5.3-11.6 0.4-2.9 1.5-7.7 2.1-10.7q0.5-3.6 0.9-7.2z"/>
			<path class="s1" d="m523.8 589.6c-1.6 4.2-10.4 19.2-8.9 22.6 5.4-2.9 20.6-41.3 20.6-47-2.7 1.9-8.6 15.1-10.4 18.9-1.5 2.5-4.1 6.9-6.4 8.4l-0.5-0.1v-1.6c-1.5-0.2-1.1-0.5-2.1 0.1l0.7 2.2c-0.7 2-0.9 2.4-1 4.4h0.6c3-2.4 4.5-5.4 7.4-7.9z"/>
			<path class="s2" d="m525.3 608.4c1.9-3.4 9.2-14.9 9.3-17.4l-0.7-0.4c-8.2 5.4-16.8 24.2-16 34l1.6-0.1c-0.1-5.2 3.5-11.4 5.8-16.1z"/>
			<path class="s3" d="m100.3 630.9c2.6 3 6.6 5.9 10 7.8-2.4-5.4-4.9-9.7-7.9-14.7-1 2.5-1.9 4.2-2.1 6.9z"/>
			<path class="s2" d="m99.1 631.2c-0.7 1.8-0.8 2.4-0.2 4.3 5.2 7.2 5.9 8 12.8 13.4l-0.1-0.5c-1.2-4.2-2.8-4.8-1.6-7.9-5.2-2.2-7.2-5.2-10.9-9.3z"/>
			<path class="s2" d="m100.1 641.6c-0.1 2-0.2 2.6 0.1 4.5 1.6 3.3 9.7 13.8 13.5 12.4-1-3.4-10.7-13.5-13.6-16.9z"/>
			<path class="s3" d="m110.5 734c1.8 1.3 2.3 1.9 4.6 1.3 0-1.5-0.4-1.4-1.7-3-1.3 0.7-1.7 0.9-2.9 1.7z"/>
		</g>
	</g>
</svg>